<svg width="150" height="151" viewBox="0 0 150 151" fill="none" xmlns="http://www.w3.org/2000/svg">
<rect y="0.00448608" width="150" height="150" rx="75" fill="#7E99EC"/>
<path fill-rule="evenodd" clip-rule="evenodd" d="M62.775 51.5133C61.1466 51.5133 59.7997 51.5633 58.5987 51.725C58.5876 51.7265 58.5765 51.7278 58.5654 51.7291C55.2982 52.0947 53.6312 52.9964 52.6513 54.4809C51.5833 56.0989 51.0957 58.7301 51.0957 63.1656C51.0957 63.994 50.4241 64.6656 49.5957 64.6656C48.7673 64.6656 48.0957 63.994 48.0957 63.1656C48.0957 58.6996 48.5459 55.2547 50.1475 52.8283C51.8347 50.2722 54.5635 49.1606 58.2152 48.7495C59.6103 48.563 61.109 48.5133 62.775 48.5133H86.4577C88.0984 48.5133 89.622 48.5629 91.0176 48.7495C94.6693 49.1606 97.398 50.2722 99.0852 52.8283C100.687 55.2547 101.137 58.6996 101.137 63.1656V78.9684C101.137 83.4345 100.687 86.8793 99.0852 89.3058C97.398 91.8618 94.6693 92.9734 91.0176 93.3845C89.6225 93.5711 88.1238 93.6208 86.4577 93.6208H62.775C61.1344 93.6208 59.6108 93.5711 58.2152 93.3845C54.5635 92.9734 51.8347 91.8618 50.1475 89.3058C48.5459 86.8793 48.0957 83.4345 48.0957 78.9684V72.7672C48.0957 71.9388 48.7673 71.2672 49.5957 71.2672C50.4241 71.2672 51.0957 71.9388 51.0957 72.7672V78.9684C51.0957 83.404 51.5833 86.0351 52.6513 87.6531C53.6312 89.1377 55.2982 90.0394 58.5654 90.405C58.5765 90.4062 58.5876 90.4076 58.5987 90.4091C59.7994 90.5707 61.1711 90.6208 62.775 90.6208H86.4577C88.0861 90.6208 89.4331 90.5707 90.6341 90.4091C90.6452 90.4076 90.6563 90.4062 90.6674 90.405C93.9346 90.0394 95.6015 89.1377 96.5814 87.6531C97.6494 86.0351 98.137 83.404 98.137 78.9684V63.1656C98.137 58.7301 97.6494 56.0989 96.5814 54.4809C95.6015 52.9964 93.9346 52.0947 90.6674 51.7291C90.6563 51.7278 90.6452 51.7265 90.6341 51.725C89.4334 51.5634 88.0617 51.5133 86.4577 51.5133H62.775Z" fill="white"/>
<path fill-rule="evenodd" clip-rule="evenodd" d="M77.0552 65.8162C77.0552 64.9877 77.7267 64.3162 78.5552 64.3162H87.7582C88.5866 64.3162 89.2582 64.9877 89.2582 65.8162C89.2582 66.6446 88.5866 67.3162 87.7582 67.3162H78.5552C77.7267 67.3162 77.0552 66.6446 77.0552 65.8162Z" fill="white"/>
<path fill-rule="evenodd" clip-rule="evenodd" d="M59.9502 80.2936C59.9502 79.4652 60.6218 78.7936 61.4502 78.7936H87.7838C88.6122 78.7936 89.2838 79.4652 89.2838 80.2936C89.2838 81.122 88.6122 81.7936 87.7838 81.7936H61.4502C60.6218 81.7936 59.9502 81.122 59.9502 80.2936Z" fill="white"/>
<path fill-rule="evenodd" clip-rule="evenodd" d="M60.5996 100.022C60.5996 99.1937 61.2712 98.5221 62.0996 98.5221H87.1078C87.9362 98.5221 88.6078 99.1937 88.6078 100.022C88.6078 100.851 87.9362 101.522 87.1078 101.522H62.0996C61.2712 101.522 60.5996 100.851 60.5996 100.022Z" fill="white"/>
<path fill-rule="evenodd" clip-rule="evenodd" d="M61.0874 65.7658C61.0874 64.9374 61.759 64.2658 62.5874 64.2658H62.6099C63.4383 64.2658 64.1099 64.9374 64.1099 65.7658C64.1099 66.5943 63.4383 67.2658 62.6099 67.2658H62.5874C61.759 67.2658 61.0874 66.5943 61.0874 65.7658Z" fill="white"/>
<path fill-rule="evenodd" clip-rule="evenodd" d="M69.3398 65.7658C69.3398 64.9374 70.0114 64.2658 70.8398 64.2658H70.8623C71.6907 64.2658 72.3623 64.9374 72.3623 65.7658C72.3623 66.5943 71.6907 67.2658 70.8623 67.2658H70.8398C70.0114 67.2658 69.3398 66.5943 69.3398 65.7658Z" fill="white"/>
</svg>
