<svg width="150" height="150" viewBox="0 0 150 150" fill="none" xmlns="http://www.w3.org/2000/svg">
<rect y="6.10352e-05" width="150" height="150" rx="75" fill="#7E99EC"/>
<path d="M100 75V77.4177C100 87.3878 95 92.3728 85 92.3728H83.75C82.975 92.3728 82.225 92.7468 81.75 93.3699L78 98.3549C76.35 100.548 73.65 100.548 72 98.3549L68.25 93.3699C67.825 92.8215 66.925 92.3728 66.25 92.3728H65C55 92.3728 50 89.8803 50 77.4177V64.9551C50 54.985 55 50 65 50H85C95 50 100 54.985 100 64.9551" stroke="white" stroke-width="3" stroke-miterlimit="10" stroke-linecap="round" stroke-linejoin="round"/>
<path d="M65.0008 66.7747L60 71.7598L65.0008 76.7448" stroke="white" stroke-width="3" stroke-miterlimit="10" stroke-linecap="round" stroke-linejoin="round"/>
<path d="M85 66.7747L90.0008 71.7598L85 76.7448" stroke="white" stroke-width="3" stroke-miterlimit="10" stroke-linecap="round" stroke-linejoin="round"/>
<path d="M77.5008 65.9522L72.5 77.5674" stroke="white" stroke-width="3" stroke-miterlimit="10" stroke-linecap="round" stroke-linejoin="round"/>
</svg>
