<svg width="150" height="150" viewBox="0 0 150 150" fill="none" xmlns="http://www.w3.org/2000/svg">
<rect y="0.000183105" width="150" height="150" rx="75" fill="#7E99EC"/>
<path d="M68.9999 94.9999H80.9997C90.9996 94.9999 94.9996 90.9999 94.9996 80.9999V68.9999C94.9996 58.9999 90.9996 54.9999 80.9997 54.9999H68.9999C59 54.9999 55 58.9999 55 68.9999V80.9999C55 90.9999 59 94.9999 68.9999 94.9999Z" stroke="white" stroke-width="3" stroke-linecap="round" stroke-linejoin="round"/>
<path d="M62.4995 71.2499V78.7499C62.4995 84.9999 64.9995 87.4999 71.2494 87.4999H78.7493C84.9993 87.4999 87.4993 84.9999 87.4993 78.7499V71.2499C87.4993 64.9999 84.9993 62.4999 78.7493 62.4999H71.2494" stroke="white" stroke-width="3" stroke-linecap="round" stroke-linejoin="round"/>
<path d="M65.0249 54.9999V49.9999" stroke="white" stroke-width="3" stroke-linecap="round" stroke-linejoin="round"/>
<path d="M74.9995 54.9999V49.9999" stroke="white" stroke-width="3" stroke-linecap="round" stroke-linejoin="round"/>
<path d="M84.9995 54.9999V49.9999" stroke="white" stroke-width="3" stroke-linecap="round" stroke-linejoin="round"/>
<path d="M94.999 64.9999H99.9998" stroke="white" stroke-width="3" stroke-linecap="round" stroke-linejoin="round"/>
<path d="M94.999 74.9999H99.9998" stroke="white" stroke-width="3" stroke-linecap="round" stroke-linejoin="round"/>
<path d="M94.999 84.9999H99.9998" stroke="white" stroke-width="3" stroke-linecap="round" stroke-linejoin="round"/>
<path d="M84.9995 94.9999V99.9999" stroke="white" stroke-width="3" stroke-linecap="round" stroke-linejoin="round"/>
<path d="M75.0244 94.9999V99.9999" stroke="white" stroke-width="3" stroke-linecap="round" stroke-linejoin="round"/>
<path d="M65.0249 94.9999V99.9999" stroke="white" stroke-width="3" stroke-linecap="round" stroke-linejoin="round"/>
<path d="M50 64.9999H55.0008" stroke="white" stroke-width="3" stroke-linecap="round" stroke-linejoin="round"/>
<path d="M50 74.9999H55.0008" stroke="white" stroke-width="3" stroke-linecap="round" stroke-linejoin="round"/>
<path d="M50 84.9999H55.0008" stroke="white" stroke-width="3" stroke-linecap="round" stroke-linejoin="round"/>
</svg>
