<svg width="150" height="150" viewBox="0 0 150 150" fill="none" xmlns="http://www.w3.org/2000/svg">
<rect x="0.000488281" width="150" height="150" rx="74.9999" fill="#7E99EC"/>
<path d="M50 77.35V82.5C50 95 54.9989 100 67.4962 100H82.4929C94.9902 100 99.9891 95 99.9891 82.5V77.5" stroke="white" stroke-width="3" stroke-linecap="round" stroke-linejoin="round"/>
<path d="M72.4951 50H67.4962C54.9989 50 50 55 50 67.5" stroke="white" stroke-width="3" stroke-linecap="round" stroke-linejoin="round"/>
<path d="M91.3413 52.4999C92.991 51.5749 94.5906 50.7999 96.0903 50.1999C97.265 49.7499 98.4148 50.0999 99.1396 50.8249C99.8895 51.5749 100.264 52.7249 99.7895 53.8999C96.7152 61.5749 88.9918 72.0249 82.5433 77.1999L78.5941 80.3499C78.0942 80.7249 77.5943 81.0249 77.0195 81.2499C77.0195 80.8749 76.9945 80.4999 76.9445 80.0999C76.7195 78.4249 75.9697 76.8499 74.62 75.5249C73.2453 74.1499 71.5957 73.3749 69.896 73.1499C69.4961 73.1249 69.0962 73.0999 68.6963 73.1249C68.9212 72.4999 69.2462 71.9249 69.6711 71.4499L72.7954 67.4999C75.4698 64.1499 79.5939 60.4499 84.0179 57.2249" stroke="white" stroke-width="3" stroke-linecap="round" stroke-linejoin="round"/>
<path d="M77.0193 81.225C77.0193 83.425 76.1695 85.525 74.5948 87.125C73.3701 88.35 71.7204 89.2 69.7459 89.45L64.822 89.975C62.1475 90.275 59.848 88 60.148 85.275L60.6729 80.35C61.1478 75.975 64.797 73.175 68.6961 73.1C69.096 73.075 69.4959 73.1 69.8958 73.125C71.5955 73.35 73.2451 74.125 74.6198 75.5C75.9695 76.85 76.7194 78.4 76.9443 80.075C76.9943 80.475 77.0193 80.875 77.0193 81.225Z" stroke="white" stroke-width="3" stroke-linecap="round" stroke-linejoin="round"/>
<path d="M84.6175 74.95C84.6175 69.725 80.3934 65.475 75.1445 65.475" stroke="white" stroke-width="3" stroke-linecap="round" stroke-linejoin="round"/>
</svg>
