<svg width="169" height="40" viewBox="0 0 169 40" fill="none" xmlns="http://www.w3.org/2000/svg">
<g clip-path="url(#clip0_159_1125)">
<path d="M19.715 0.215252C19.654 0.240677 19.632 0.240677 19.5676 0.223726C19.4625 0.196608 19.3845 0.198303 19.315 0.232201C19.2591 0.257626 19.2489 0.257626 19.1676 0.232201C19.0574 0.194914 19.0472 0.196608 18.9608 0.238981C18.8981 0.271185 18.8811 0.272879 18.8167 0.25593C18.7184 0.230507 18.6523 0.232201 18.5913 0.262711C18.554 0.283049 18.515 0.286438 18.4387 0.277964C18.3625 0.269489 18.3201 0.274574 18.2591 0.296608C18.1896 0.323727 18.1709 0.323727 18.0964 0.305082C18.0167 0.284744 18.0065 0.286438 17.9387 0.323727C17.8709 0.361015 17.8591 0.361015 17.7709 0.342371C17.6794 0.323727 17.6709 0.325422 17.6116 0.3661C17.5574 0.401693 17.5404 0.405083 17.5014 0.389828C17.432 0.364405 17.3811 0.36949 17.3065 0.408472C17.2506 0.437286 17.2218 0.440676 17.1455 0.432201C17.0676 0.422031 17.0472 0.425423 17.0048 0.455931C16.9591 0.489828 16.9489 0.491524 16.8777 0.472879C16.8082 0.454235 16.7964 0.455931 16.7421 0.488134C16.6981 0.516947 16.6557 0.525421 16.576 0.525421C16.4981 0.525421 16.454 0.535591 16.4116 0.561014C16.3574 0.594913 16.3252 0.596609 16.2489 0.567795C16.2353 0.561014 16.2015 0.577965 16.1709 0.603388C16.1235 0.64237 16.1082 0.645761 16.0404 0.635592C15.9794 0.627117 15.954 0.632202 15.9082 0.659321C15.8726 0.681355 15.8235 0.694914 15.7743 0.694914C15.7337 0.694914 15.6659 0.710167 15.6252 0.728811C15.5845 0.747456 15.515 0.762711 15.4709 0.762711C15.4201 0.762711 15.3692 0.77627 15.3353 0.796608C15.3031 0.816948 15.2489 0.830507 15.2082 0.830507C15.1659 0.830507 15.1116 0.84576 15.076 0.8661C15.037 0.889828 14.9998 0.898304 14.9692 0.893219C14.9387 0.886438 14.8998 0.898304 14.8506 0.927116C14.793 0.95932 14.7625 0.966101 14.7184 0.957624C14.6692 0.94915 14.6506 0.955931 14.6065 0.991524C14.5608 1.03051 14.5421 1.03559 14.4862 1.02712C14.432 1.01864 14.4116 1.02373 14.3692 1.05932C14.332 1.08983 14.2998 1.10169 14.2455 1.10169C14.193 1.10169 14.1506 1.11525 14.1065 1.14576C14.0608 1.17627 14.0286 1.18644 13.9964 1.17966C13.9625 1.17288 13.9303 1.18305 13.8879 1.21186C13.854 1.23559 13.8099 1.25424 13.7896 1.25424C13.7523 1.25424 13.6116 1.30508 13.4998 1.35763C13.4625 1.37457 13.4082 1.38983 13.3811 1.38983C13.3489 1.38983 13.3065 1.40847 13.2676 1.44068C13.2184 1.48135 13.1964 1.48983 13.154 1.48135C13.1099 1.47118 13.0879 1.47966 13.0337 1.52373C12.9845 1.56271 12.9506 1.57627 12.9015 1.57627C12.8642 1.57627 12.8252 1.58644 12.8133 1.6C12.8031 1.61356 12.7574 1.63898 12.715 1.65424C12.6709 1.67118 12.6286 1.68983 12.6184 1.6983C12.6099 1.70508 12.5845 1.71186 12.5642 1.71186C12.5133 1.71186 12.4421 1.74746 12.3998 1.79491C12.3743 1.82203 12.354 1.82881 12.315 1.82034C12.2726 1.81356 12.2489 1.82203 12.1964 1.8644C12.1591 1.89322 12.1099 1.92034 12.0879 1.92712C12.0642 1.9322 12.0252 1.94746 12.0015 1.95932C11.9777 1.97288 11.9438 1.98305 11.9269 1.98305C11.9082 1.98305 11.8642 2.01017 11.8252 2.04237C11.7811 2.08135 11.7387 2.10169 11.7065 2.10169C11.6608 2.10169 11.437 2.21864 11.415 2.25424C11.4099 2.2644 11.376 2.27118 11.3421 2.27118C11.3015 2.27118 11.2676 2.28474 11.2387 2.31186C11.1794 2.3661 11.0387 2.44068 10.9896 2.44068C10.9692 2.44068 10.9201 2.46779 10.8811 2.5C10.8048 2.56441 10.6574 2.64407 10.615 2.64407C10.5998 2.64407 10.5608 2.6644 10.5286 2.68983C10.4116 2.77796 10.3015 2.84746 10.276 2.84746C10.237 2.84746 10.0811 2.94068 10.0337 2.99152C10.0099 3.01695 9.92348 3.07118 9.83874 3.11186C9.75569 3.15424 9.64382 3.22034 9.59298 3.26271C9.54213 3.30339 9.44213 3.3661 9.37264 3.4C9.30315 3.43559 9.18789 3.51017 9.1184 3.56779C9.04891 3.62542 8.96925 3.68644 8.94043 3.70169C8.74721 3.81186 8.63196 3.89152 8.50823 4C8.41332 4.08305 8.30145 4.1661 8.20145 4.22881C8.07772 4.30678 7.98281 4.37966 7.68959 4.63559C7.52179 4.78135 7.47603 4.81864 7.31501 4.94407C6.82179 5.33051 5.52179 6.63559 5.09298 7.17796C5.05569 7.22373 4.96247 7.33559 4.88789 7.42542C4.76755 7.56441 4.67094 7.69152 4.30823 8.17627C4.27433 8.22203 4.22179 8.28644 4.19467 8.32034C4.16586 8.35423 4.13027 8.4 4.11332 8.42373C4.09806 8.44746 4.02518 8.55424 3.9506 8.66101C3.77094 8.91864 3.64382 9.11017 3.5862 9.20339C3.56077 9.24576 3.51501 9.31695 3.4862 9.36271C3.4184 9.46779 3.36416 9.55424 3.32857 9.61864C3.31332 9.64576 3.27264 9.71186 3.23705 9.76271C3.16247 9.87457 3.03366 10.0949 3.03366 10.1119C3.03366 10.1186 3.01501 10.1475 2.99298 10.178C2.97094 10.2068 2.93196 10.2712 2.90823 10.3186C2.8845 10.3678 2.84382 10.4475 2.8201 10.4949C2.79467 10.5441 2.76077 10.6051 2.74382 10.6305C2.72518 10.6542 2.64891 10.8 2.57433 10.9525C2.49976 11.1051 2.42688 11.2492 2.41332 11.2746C2.39976 11.3017 2.37942 11.3424 2.36586 11.3678C2.34213 11.4136 2.25399 11.5983 2.12857 11.8678C2.09467 11.939 2.06755 12.0068 2.06755 12.0169C2.06755 12.0271 2.04043 12.0915 2.00823 12.1576C1.97603 12.2237 1.94891 12.2898 1.94891 12.3034C1.94891 12.3186 1.92857 12.3644 1.90484 12.4068C1.88111 12.4492 1.84721 12.5271 1.83027 12.5797C1.81162 12.6322 1.7862 12.6932 1.77264 12.7153C1.75908 12.7373 1.73535 12.8 1.7201 12.8559C1.70654 12.9119 1.67603 12.9949 1.6523 13.0424C1.63027 13.0881 1.60315 13.161 1.59298 13.2034C1.58111 13.2458 1.55569 13.3169 1.53366 13.3644C1.51332 13.4102 1.4862 13.4915 1.47603 13.5424C1.46416 13.5932 1.43705 13.6746 1.41501 13.7237C1.39128 13.7712 1.36416 13.8525 1.35569 13.9017C1.34552 13.9508 1.3184 14.0373 1.29637 14.0932C1.27264 14.1492 1.24382 14.2475 1.23027 14.3136C1.21671 14.378 1.18959 14.4661 1.17094 14.5102C1.1523 14.5525 1.12857 14.6441 1.11671 14.7136C1.10654 14.7814 1.08111 14.8847 1.05908 14.9407C1.03705 14.9966 1.00654 15.1136 0.991282 15.2C0.976028 15.2881 0.950604 15.3949 0.93196 15.4407C0.915011 15.4847 0.889588 15.6017 0.876028 15.6983C0.862469 15.7932 0.833655 15.922 0.813316 15.9814C0.792977 16.0424 0.765859 16.1746 0.753994 16.278C0.740435 16.3814 0.711621 16.5492 0.687893 16.6525C0.664164 16.7542 0.637045 16.9373 0.626876 17.0593C0.616706 17.1797 0.592977 17.3441 0.574333 17.4203C0.552299 17.5153 0.526876 17.7508 0.498062 18.1237C0.476028 18.4339 0.450605 18.7593 0.440435 18.8475C0.411622 19.1322 0.401452 20.1153 0.421791 20.6356C0.443825 21.2102 0.530266 22.2492 0.567554 22.4017C0.581113 22.461 0.604842 22.6017 0.618401 22.7153C0.63196 22.8288 0.665859 23.0644 0.692977 23.2373C0.720096 23.4102 0.750605 23.6119 0.760774 23.6864C0.772638 23.761 0.798062 23.8847 0.821791 23.961C0.843825 24.0373 0.867554 24.1373 0.872638 24.1814C0.879418 24.2271 0.904842 24.339 0.93196 24.4322C0.957384 24.5254 0.994672 24.6814 1.01501 24.7797C1.06416 25.0305 1.14213 25.3203 1.17603 25.3864C1.19128 25.4169 1.22179 25.5085 1.24382 25.5898C1.35399 25.9966 1.37942 26.083 1.41501 26.161C1.45399 26.2458 1.53366 26.4746 1.59298 26.6746C1.63535 26.8136 1.7184 27.0339 1.77772 27.161C1.80484 27.2169 1.8506 27.3356 1.88111 27.4237C1.90993 27.5119 1.98281 27.683 2.04043 27.8051C2.09976 27.9254 2.16077 28.0661 2.17772 28.1169C2.19467 28.1678 2.25738 28.3017 2.31671 28.4136C2.37772 28.5271 2.44213 28.6559 2.46077 28.7034C2.51162 28.8322 2.56077 28.9339 2.60993 29.0085C2.63366 29.0458 2.70654 29.1797 2.76925 29.3051C2.83196 29.4305 2.91332 29.5763 2.94721 29.6271C2.98281 29.678 3.04721 29.7932 3.09128 29.8814C3.13535 29.9695 3.19298 30.0644 3.2184 30.0932C3.24552 30.1203 3.29806 30.2085 3.33704 30.2881C3.37433 30.3678 3.43366 30.4627 3.46755 30.5C3.50145 30.5373 3.5506 30.6102 3.57772 30.661C3.65399 30.8017 3.69298 30.8627 3.78111 30.9746C3.89128 31.1169 3.92349 31.1424 3.97094 31.1288C3.99298 31.1237 4.14382 30.9915 4.30484 30.8339C4.58959 30.5559 4.59806 30.5458 4.59806 30.4797C4.59806 30.3983 4.52349 30.2525 4.36925 30.0356C4.31332 29.9576 4.23366 29.8288 4.19128 29.7475C4.14891 29.6678 4.09298 29.578 4.06586 29.5508C4.02349 29.5051 3.89806 29.2746 3.89806 29.2407C3.89806 29.2322 3.86755 29.1864 3.83196 29.1373C3.79467 29.0881 3.70145 28.9237 3.62518 28.7746C3.54891 28.6237 3.46925 28.4763 3.44721 28.4492C3.42688 28.4203 3.38959 28.3441 3.36416 28.2797C3.33874 28.2136 3.25908 28.039 3.1862 27.8898C3.11332 27.7407 3.04891 27.5966 3.04382 27.5695C3.03705 27.5407 3.00484 27.4627 2.97264 27.3949C2.94043 27.3271 2.91501 27.2644 2.91501 27.2559C2.91501 27.2492 2.89637 27.2136 2.87264 27.1797C2.84891 27.1441 2.79128 27 2.74552 26.8593C2.69806 26.7169 2.63874 26.5593 2.61162 26.5085C2.55908 26.4068 2.44043 26.0729 2.44043 26.022C2.44043 26.0051 2.4201 25.9458 2.39637 25.8898C2.37264 25.8339 2.33874 25.739 2.32349 25.678C2.30654 25.6169 2.28111 25.5441 2.26586 25.5136C2.23874 25.4627 2.15908 25.1678 2.08281 24.8339C2.06416 24.7559 2.03535 24.6644 2.0184 24.6305C1.98789 24.5695 1.89298 24.139 1.83874 23.8153C1.82349 23.7271 1.79637 23.6119 1.77772 23.561C1.76077 23.5085 1.73027 23.3593 1.71332 23.2288C1.69467 23.0983 1.66755 22.9458 1.65399 22.8898C1.62857 22.7915 1.61671 22.6814 1.57433 22.2458C1.56416 22.1339 1.54552 21.9814 1.53196 21.9068C1.47264 21.5712 1.41501 20.0407 1.44043 19.4644C1.4506 19.2424 1.46586 18.8644 1.47433 18.6271C1.4845 18.3898 1.50315 18.1186 1.51671 18.0254C1.56416 17.7119 1.57433 17.6356 1.59298 17.4237C1.60315 17.3068 1.63366 17.1017 1.66077 16.9661C1.68789 16.8305 1.71501 16.6593 1.7201 16.5847C1.72688 16.5102 1.7506 16.3915 1.77264 16.322C1.79467 16.2525 1.82349 16.1136 1.83705 16.0153C1.8506 15.9169 1.87772 15.7949 1.89637 15.7441C1.91501 15.6932 1.94213 15.5814 1.95569 15.4966C1.96925 15.4102 1.99637 15.3051 2.01501 15.261C2.03366 15.2186 2.06077 15.1237 2.07603 15.0492C2.08959 14.9746 2.1201 14.8576 2.14213 14.7915C2.16586 14.7237 2.19298 14.6271 2.20315 14.5746C2.21332 14.522 2.23705 14.4492 2.25569 14.4136C2.27433 14.3763 2.30145 14.2864 2.31501 14.2119C2.33027 14.1373 2.35569 14.0525 2.37264 14.0254C2.38959 13.9966 2.4201 13.9136 2.44043 13.839C2.46077 13.7644 2.48789 13.6864 2.50145 13.6661C2.51501 13.6441 2.53874 13.5797 2.5523 13.522C2.56755 13.4627 2.59806 13.3797 2.6201 13.3373C2.64213 13.2932 2.66925 13.222 2.67942 13.1763C2.69128 13.1305 2.72179 13.0542 2.74891 13.0068C2.77433 12.9593 2.79637 12.9051 2.79637 12.8864C2.79637 12.8661 2.8184 12.8085 2.84552 12.7576C2.87264 12.7068 2.90654 12.6254 2.92349 12.5746C2.94043 12.5237 2.96755 12.4644 2.98281 12.4407C2.99976 12.4169 3.02518 12.3627 3.04043 12.3186C3.05399 12.2746 3.08959 12.1949 3.1184 12.1424C3.14552 12.0898 3.16925 12.0356 3.16925 12.0237C3.16925 12.0119 3.19128 11.9627 3.2201 11.9153C3.24721 11.8678 3.27094 11.822 3.27094 11.8153C3.27094 11.8085 3.29637 11.7525 3.32857 11.6932C3.35908 11.6339 3.39128 11.5661 3.39806 11.5424C3.40484 11.5186 3.43196 11.4695 3.45738 11.4322C3.48281 11.3949 3.51162 11.3373 3.52349 11.3051C3.53366 11.2729 3.56586 11.2119 3.59298 11.1695C3.6201 11.1271 3.64382 11.0881 3.64382 11.0814C3.64382 11.0746 3.67094 11.0271 3.70315 10.9763C3.73535 10.9254 3.76247 10.8763 3.76247 10.8678C3.76247 10.8593 3.78111 10.8254 3.80484 10.7915C3.82688 10.7576 3.88111 10.6593 3.92518 10.5729C3.97094 10.4864 4.03027 10.3814 4.05908 10.339C4.08959 10.2966 4.13874 10.2169 4.16925 10.161C4.19976 10.1051 4.25399 10.0169 4.28789 9.9661C4.37942 9.82712 4.50993 9.62712 4.5506 9.55932C4.59467 9.48813 4.62349 9.44576 4.71332 9.32203C4.74891 9.27118 4.82857 9.15593 4.88789 9.06779C4.94891 8.97966 5.03535 8.86102 5.07942 8.80508C5.12518 8.74915 5.26077 8.57457 5.37942 8.41695C5.49976 8.25932 5.61501 8.11017 5.63535 8.08644C5.65738 8.06271 5.79128 7.90847 5.93196 7.74576C6.73365 6.82542 7.05738 6.4983 7.78789 5.87288C7.93704 5.74576 8.11671 5.58644 8.1862 5.51864C8.25738 5.45254 8.37942 5.35085 8.45738 5.29152C8.53704 5.2339 8.6167 5.17457 8.63535 5.15932C8.65399 5.14576 8.70484 5.11017 8.74891 5.08305C8.79298 5.05424 8.89128 4.97458 8.96925 4.90339C9.04721 4.8339 9.13874 4.75932 9.17433 4.74068C9.29128 4.67457 9.32857 4.65254 9.42687 4.58813C9.47942 4.55424 9.52687 4.51864 9.53365 4.51017C9.55569 4.47118 9.74552 4.34237 9.85569 4.28983C9.92179 4.25763 10.0065 4.20508 10.0455 4.17118C10.1659 4.06779 10.2099 4.03898 10.2659 4.02712C10.2947 4.02034 10.3286 4.00339 10.3404 3.98983C10.3506 3.97627 10.3709 3.9661 10.3828 3.9661C10.3964 3.9661 10.4387 3.93729 10.4794 3.90169C10.5811 3.81017 10.715 3.72881 10.7659 3.72881C10.7896 3.72881 10.8167 3.71864 10.8269 3.70678C10.8659 3.66101 11.0811 3.52542 11.115 3.52542C11.1489 3.52542 11.2794 3.44915 11.3726 3.37457C11.3964 3.35593 11.4303 3.33898 11.4489 3.33898C11.4913 3.33898 11.6337 3.2661 11.715 3.20169C11.7506 3.17288 11.7981 3.15254 11.8269 3.15254C11.854 3.15254 11.8947 3.13898 11.9167 3.12203C12.0167 3.04576 12.1404 2.98305 12.1879 2.98305C12.2252 2.98305 12.2625 2.96441 12.3065 2.92373C12.3472 2.88813 12.3896 2.8644 12.4184 2.8644C12.4659 2.8644 12.6218 2.79661 12.6998 2.74237C12.7286 2.72203 12.7642 2.71186 12.7896 2.71695C12.8201 2.72203 12.8506 2.70847 12.9015 2.6678C12.9438 2.63051 12.9879 2.61017 13.0184 2.61017C13.0472 2.61017 13.0981 2.59491 13.132 2.57796C13.2981 2.48983 13.3709 2.46102 13.4015 2.46779C13.4218 2.47288 13.4591 2.45593 13.4998 2.42373C13.5557 2.37966 13.5777 2.37119 13.6303 2.37796C13.6811 2.38474 13.7015 2.37796 13.7489 2.33729C13.7879 2.30339 13.8235 2.28983 13.8692 2.28813C13.9099 2.28813 13.9574 2.27118 13.9964 2.24576C14.0303 2.22203 14.0828 2.20339 14.1133 2.20339C14.1438 2.20339 14.193 2.18813 14.2235 2.16949C14.254 2.15084 14.2964 2.13559 14.3184 2.13559C14.3404 2.13559 14.3896 2.12034 14.4286 2.10339C14.4676 2.08474 14.5303 2.0661 14.5676 2.05932C14.6048 2.05254 14.6438 2.03898 14.654 2.03051C14.6659 2.02203 14.7252 2.00508 14.7862 1.99152C14.8489 1.97966 14.9099 1.96102 14.9201 1.95085C14.932 1.94237 14.9828 1.92881 15.0337 1.92203C15.0845 1.91525 15.154 1.89661 15.1862 1.87966C15.2184 1.86102 15.2743 1.84746 15.3082 1.84746C15.3438 1.84746 15.4031 1.8322 15.4404 1.81186C15.4845 1.78813 15.5235 1.77966 15.5506 1.78644C15.5811 1.79491 15.6167 1.78474 15.6659 1.75593C15.7218 1.72203 15.7523 1.71525 15.8015 1.72373C15.8506 1.73051 15.8743 1.72542 15.9031 1.7C15.9642 1.64576 15.9794 1.64068 16.0404 1.66271C16.0947 1.68305 16.1048 1.67966 16.1642 1.63898C16.2184 1.60339 16.2421 1.59661 16.3065 1.60508C16.3642 1.61186 16.3981 1.60508 16.4472 1.57966C16.4947 1.55424 16.532 1.54745 16.5998 1.55254C16.6726 1.55932 16.6964 1.55424 16.7353 1.52373C16.7828 1.48644 16.8184 1.48135 16.9099 1.50169C16.9523 1.51017 16.976 1.50339 17.0116 1.47627C17.0506 1.44407 17.0709 1.44068 17.1489 1.45085C17.2252 1.45932 17.254 1.45593 17.3235 1.42203C17.3964 1.38813 17.4167 1.38644 17.476 1.40169C17.532 1.41695 17.5523 1.41356 17.6031 1.38644C17.654 1.35932 17.6828 1.35593 17.7726 1.3644C17.8659 1.37457 17.8879 1.37119 17.9404 1.33898C17.9981 1.30339 18.0082 1.30169 18.0913 1.32203C18.1692 1.34068 18.1879 1.33898 18.237 1.31356C18.2828 1.28983 18.3201 1.28644 18.415 1.29322C18.5014 1.3 18.5455 1.29661 18.576 1.27966C18.6252 1.25084 18.7303 1.24746 18.8116 1.27118C18.8574 1.28305 18.8845 1.27966 18.9506 1.25254C19.0269 1.21864 19.0421 1.21864 19.1421 1.23729C19.237 1.25763 19.2591 1.25593 19.3218 1.23051C19.3862 1.20508 19.4099 1.20339 19.5116 1.22203C19.5998 1.23729 19.637 1.23729 19.6692 1.22373C19.7235 1.1983 19.8353 1.1983 19.9184 1.22034C19.9659 1.2339 20.0048 1.2322 20.0777 1.21356C20.1642 1.19152 20.1879 1.19152 20.3015 1.21525C20.4116 1.23729 20.4438 1.23729 20.5218 1.21864C20.5981 1.20169 20.6303 1.20169 20.7167 1.22034C20.8286 1.24576 20.8845 1.24746 21.037 1.22881C21.1082 1.21864 21.1506 1.22373 21.2082 1.24576C21.2828 1.27457 21.3489 1.27457 21.4845 1.24576C21.5184 1.23898 21.5777 1.24746 21.6506 1.26949C21.7472 1.3 21.7913 1.30339 21.9303 1.29491C22.076 1.28644 22.1065 1.28983 22.237 1.33051C22.3676 1.37288 22.3879 1.37457 22.4659 1.35593C22.5404 1.33898 22.5692 1.34068 22.7031 1.37288C22.7862 1.39322 22.8811 1.42034 22.9116 1.4339C22.9506 1.44915 22.9998 1.45424 23.0692 1.44576C23.1879 1.4339 23.3862 1.4661 23.4794 1.51186C23.5472 1.54576 23.7286 1.57457 23.8811 1.57627C23.9642 1.57627 24.1438 1.62203 24.3726 1.7C24.5133 1.74746 24.6743 1.77966 24.7235 1.76949C24.7523 1.7644 24.7998 1.77118 24.837 1.78644C24.8726 1.80169 24.9235 1.81356 24.9489 1.81356C24.9743 1.81356 25.032 1.82712 25.0777 1.84407C25.1574 1.87457 25.2455 1.90678 25.4065 1.96102C25.4489 1.97627 25.515 2.00169 25.5557 2.01864C25.5947 2.03729 25.6421 2.05085 25.6591 2.05085C25.6777 2.05085 25.7269 2.0661 25.7709 2.08474C25.815 2.10339 25.8743 2.11864 25.9031 2.11864C25.9337 2.11864 25.9862 2.1339 26.0218 2.15254C26.0557 2.17118 26.1099 2.18644 26.1421 2.18644C26.1743 2.18644 26.2404 2.20508 26.2913 2.22881C26.3404 2.25254 26.3981 2.27118 26.4201 2.27118C26.4421 2.27118 26.4947 2.28983 26.5387 2.31356C26.5828 2.33729 26.6303 2.35593 26.6472 2.35593C26.6625 2.35593 26.7353 2.38135 26.8082 2.41356C26.8828 2.44407 26.9692 2.47627 27.0014 2.48305C27.032 2.48983 27.0896 2.51356 27.1269 2.5339C27.1642 2.55424 27.2218 2.57627 27.254 2.58305C27.2862 2.58983 27.3404 2.61186 27.3726 2.6339C27.4048 2.65593 27.476 2.68644 27.5303 2.70169C27.5828 2.71695 27.6625 2.75084 27.7082 2.77796C27.7523 2.80339 27.815 2.83051 27.8472 2.83559C27.8794 2.84237 27.9337 2.8661 27.9676 2.88813C28.0014 2.91017 28.0845 2.95254 28.154 2.98305C28.2235 3.01186 28.3065 3.05593 28.3387 3.08305C28.3709 3.10847 28.4337 3.14237 28.4777 3.15932C28.5218 3.17457 28.6015 3.21864 28.6557 3.25593C28.7099 3.29152 28.7692 3.32203 28.7862 3.32203C28.8031 3.32203 28.876 3.35932 28.9472 3.40508C29.0184 3.44915 29.1353 3.51017 29.2082 3.54068C29.2811 3.56949 29.3726 3.61525 29.4116 3.64068C29.4506 3.6678 29.5337 3.71356 29.5964 3.74237C29.6574 3.77118 29.7472 3.82881 29.793 3.86949C29.8404 3.91186 29.9218 3.9661 29.976 3.99152C30.032 4.01695 30.137 4.07796 30.2116 4.12712C30.2862 4.17457 30.3862 4.23559 30.432 4.26271C30.4794 4.28983 30.5438 4.3322 30.576 4.35932C30.6438 4.41356 30.7015 4.41864 30.7625 4.37627C30.7862 4.36102 30.9252 4.22373 31.0726 4.07457C31.315 3.82542 31.3387 3.79491 31.3387 3.74068C31.3387 3.68983 31.3252 3.6678 31.2421 3.59322C31.1879 3.54576 31.0947 3.48305 31.0337 3.45254C30.8743 3.37627 30.7269 3.28813 30.6845 3.24576C30.632 3.19152 30.5048 3.10169 30.4828 3.10169C30.4726 3.10169 30.4116 3.06779 30.3489 3.02542C30.2133 2.9339 30.0879 2.8661 29.9777 2.82373C29.9337 2.80678 29.876 2.77627 29.8506 2.75424C29.8252 2.7339 29.7455 2.68474 29.6726 2.64576C29.5981 2.60847 29.515 2.55593 29.4845 2.53051C29.4557 2.50339 29.3981 2.46949 29.3557 2.45254C29.3133 2.43559 29.2608 2.41017 29.237 2.39661C29.115 2.32881 28.9218 2.23729 28.9015 2.23729C28.8879 2.23729 28.8574 2.22203 28.832 2.20508C28.7794 2.1661 28.6218 2.09491 28.554 2.07796C28.5286 2.07288 28.4709 2.04407 28.4252 2.01695C28.3811 1.98813 28.3303 1.9661 28.315 1.9661C28.2981 1.9661 28.2167 1.9322 28.132 1.88983C28.0472 1.84746 27.9659 1.81356 27.9506 1.81356C27.9353 1.81356 27.8828 1.78983 27.832 1.76271C27.7811 1.7339 27.7303 1.71186 27.7184 1.71186C27.7065 1.71186 27.6489 1.68983 27.5896 1.66271C27.5303 1.63559 27.4387 1.5983 27.3845 1.57796C27.3303 1.55762 27.2557 1.52712 27.2201 1.50847C27.1828 1.48983 27.1353 1.47458 27.115 1.47458C27.093 1.47458 27.0438 1.45593 27.0048 1.4339C26.9659 1.41186 26.9082 1.38813 26.8777 1.38135C26.8472 1.37457 26.7845 1.35085 26.737 1.33051C26.6913 1.31017 26.6252 1.28305 26.593 1.27118C26.5608 1.25932 26.4845 1.2322 26.4235 1.20847C26.1981 1.12203 25.9201 1.03729 25.7964 1.01695C25.5879 0.983049 25.376 0.923727 25.0252 0.798304C24.8777 0.747456 24.7794 0.723726 24.6947 0.718641C24.5404 0.713558 24.4201 0.694914 24.3303 0.66271C24.0472 0.56271 23.9709 0.544065 23.7726 0.533895C23.6337 0.527117 23.5455 0.513557 23.493 0.491524C23.3557 0.435591 23.1777 0.405083 23.0591 0.416946C22.9794 0.425423 22.9303 0.422031 22.8777 0.401693C22.7353 0.350845 22.6235 0.333897 22.4879 0.344067C22.3743 0.354235 22.3404 0.34915 22.2574 0.316948C22.1743 0.286438 22.1337 0.281355 21.9692 0.284744C21.815 0.288134 21.7523 0.283049 21.6489 0.252541C21.5218 0.216948 21.5167 0.216948 21.4303 0.247456C21.3438 0.27627 21.3404 0.27627 21.2421 0.240677C21.1235 0.196608 21.0421 0.193218 20.9709 0.228811C20.9252 0.250845 20.9082 0.250845 20.7845 0.218641C20.6591 0.18644 20.6438 0.18644 20.5523 0.210167C20.4659 0.232201 20.4438 0.232201 20.3591 0.210167C20.2998 0.193218 20.2337 0.188133 20.1862 0.194914C20.0777 0.210167 19.9523 0.211863 19.8642 0.198303C19.8099 0.189829 19.7676 0.194914 19.715 0.215252Z" fill="#0E0E0E"/>
<path d="M19.5084 5.73899C19.1626 5.75764 18.8101 5.78476 18.6016 5.80679C14.649 6.22204 11.0762 8.25086 8.67785 11.4441C7.37107 13.1814 6.48294 15.1966 6.07785 17.3407C5.90497 18.2576 5.83887 18.9831 5.83887 19.9915C5.83887 20.6678 5.85243 20.9593 5.90836 21.4831C6.24904 24.7356 7.69141 27.7576 10.0084 30.0763C12.0423 32.1085 14.6287 33.4763 17.4423 34.0068C18.3626 34.1797 19.0829 34.2441 20.0931 34.2441C20.7694 34.2441 21.066 34.2305 21.5846 34.1763C24.1524 33.9068 26.588 32.9492 28.6406 31.4068C31.8338 29.0085 33.8643 25.4339 34.2779 21.4831C34.3338 20.9627 34.3456 20.6678 34.3456 19.9915C34.3456 19.1526 34.3168 18.7136 34.2101 17.9576C33.5609 13.3593 30.649 9.32374 26.4745 7.2356C24.7863 6.39153 23.044 5.91357 21.1016 5.76272C20.8711 5.74408 19.7134 5.72713 19.5084 5.73899ZM12.8643 11.9492C12.8643 11.9712 12.8863 11.9932 12.9304 12.0153C13.1202 12.1119 13.2711 12.4203 13.2084 12.5848C13.1948 12.622 13.1711 12.6865 13.1558 12.7288C13.1134 12.8509 12.9931 12.9797 12.8643 13.0407C12.6507 13.1424 12.4287 13.1017 12.2406 12.9254C12.1253 12.817 12.0677 12.7051 12.0558 12.5627C12.0372 12.3475 12.1355 12.1509 12.3219 12.0288C12.3694 11.9983 12.4067 11.961 12.4067 11.9441C12.4067 11.9187 12.4287 11.9153 12.6355 11.9153C12.8524 11.9153 12.8643 11.917 12.8643 11.9492ZM13.6609 12.7102C13.7677 12.7559 13.9134 12.8153 13.9829 12.8441C14.0524 12.8712 14.1524 12.9102 14.2033 12.9322C14.2541 12.9526 14.3372 12.9848 14.388 13.0017C14.4389 13.0203 14.5202 13.0526 14.5694 13.0763C14.6185 13.1 14.6677 13.1187 14.6762 13.1187C14.6863 13.1187 14.8338 13.1746 15.005 13.2441C15.1745 13.3119 15.3524 13.3814 15.4016 13.3966C15.4846 13.4237 15.5304 13.4627 15.5931 13.5559L15.6185 13.5949L15.7101 13.517C15.8338 13.4102 15.8812 13.3898 15.9914 13.3898C16.1067 13.3898 16.1914 13.4288 16.2762 13.5237C16.3643 13.622 16.3948 13.6881 16.3931 13.7915C16.3931 13.8695 16.3829 13.8932 16.3185 13.978C16.2151 14.1153 16.105 14.1865 15.9982 14.1865C15.827 14.1865 15.6524 14.0475 15.6016 13.8729C15.5694 13.7644 15.5338 13.739 15.4423 13.7542C15.3914 13.7627 15.3473 13.7526 15.227 13.7034C15.144 13.6695 15.0185 13.6203 14.949 13.5932C14.8795 13.5661 14.7609 13.5203 14.6863 13.4915C14.6117 13.461 14.4677 13.4068 14.366 13.3712C14.2643 13.3339 14.1728 13.2983 14.1626 13.2898C14.1524 13.2814 14.1134 13.2661 14.0762 13.2542C14.0389 13.2424 13.9609 13.2119 13.9016 13.1848C13.8423 13.1576 13.7745 13.1305 13.749 13.1237C13.7236 13.1187 13.644 13.0881 13.5711 13.0559C13.4982 13.0254 13.427 13 13.4151 13C13.4033 13 13.3694 12.9797 13.3406 12.9559C13.2965 12.9187 13.288 12.9 13.288 12.8356C13.288 12.7661 13.2965 12.7492 13.3558 12.6915C13.3948 12.6559 13.4338 12.6271 13.4456 12.6271C13.4558 12.6271 13.5541 12.6644 13.6609 12.7102ZM26.4745 12.7458C26.6101 12.8153 26.6931 12.8983 26.7592 13.0339C26.8134 13.1424 26.8219 13.1746 26.8219 13.2797C26.8219 13.3797 26.8118 13.4153 26.7643 13.5136C26.7033 13.6356 26.6033 13.739 26.4829 13.8017C26.427 13.8322 26.3846 13.839 26.2372 13.839C26.027 13.839 25.9745 13.8187 25.8389 13.6881C25.7134 13.5627 25.6609 13.4441 25.6609 13.2746C25.6609 13.1593 25.6677 13.1271 25.7134 13.0373C25.7762 12.9102 25.9151 12.778 26.0389 12.7305C26.1592 12.6814 26.3643 12.6881 26.4745 12.7458ZM26.4151 13.9831C26.4812 14.0085 26.4914 14.0441 26.5084 14.2729C26.5168 14.3983 26.5321 14.5576 26.5406 14.6271C26.5914 15.0203 26.5965 15.0983 26.5694 15.1509C26.5541 15.1797 26.5423 15.2136 26.5423 15.2271C26.5423 15.2542 26.6117 15.3153 26.6914 15.3593C26.7202 15.3746 26.7795 15.4339 26.8236 15.4898C26.8677 15.5475 26.9151 15.5932 26.9287 15.5932C26.9423 15.5932 26.9795 15.5627 27.0117 15.5271C27.066 15.4627 27.0728 15.4593 27.1999 15.4492C27.2711 15.4441 27.4643 15.4237 27.627 15.4051C27.7897 15.3881 27.966 15.3678 28.0168 15.3627C28.0677 15.3593 28.1863 15.3441 28.2795 15.3305C28.3728 15.317 28.5406 15.2983 28.6524 15.2881C28.8948 15.2695 29.2507 15.2322 29.5423 15.1966C29.6592 15.1831 29.8338 15.1627 29.9321 15.1526C30.0304 15.1424 30.1541 15.1254 30.2067 15.1153C30.3033 15.0983 30.305 15.0983 30.3931 15.1593C30.4423 15.1932 30.488 15.2204 30.4931 15.2204C30.4999 15.2204 30.5185 15.1695 30.5355 15.1051C30.5524 15.0424 30.5795 14.9593 30.5965 14.9187C30.6355 14.8254 30.7694 14.6983 30.8914 14.6356C31.1168 14.5203 31.4304 14.6085 31.5863 14.8288C31.6134 14.8661 31.649 14.8983 31.666 14.8983C31.6914 14.8983 31.6948 14.922 31.6948 15.1695C31.6948 15.4271 31.6931 15.4407 31.6626 15.4407C31.6423 15.4407 31.6067 15.4712 31.5762 15.5153C31.4456 15.6949 31.1965 15.7932 31.0033 15.7373C30.7931 15.6746 30.6643 15.5661 30.5863 15.3831C30.5592 15.322 30.5321 15.2712 30.5253 15.2712C30.5185 15.2712 30.4965 15.2966 30.4779 15.3288C30.4101 15.4424 30.3507 15.4627 29.9914 15.4915C29.8609 15.5017 29.705 15.5187 29.644 15.5271C29.5829 15.5373 29.427 15.5542 29.2965 15.5678C29.166 15.5814 28.9643 15.6034 28.8473 15.617C28.7304 15.6305 28.4829 15.6576 28.2965 15.678C28.1101 15.6966 27.8694 15.7237 27.7626 15.7373C27.6558 15.7509 27.4558 15.7712 27.3168 15.7831C27.0711 15.8034 27.066 15.8017 27.0168 15.7661C26.9897 15.7458 26.9558 15.7288 26.944 15.7288C26.9304 15.7288 26.8931 15.7797 26.8626 15.8407C26.7999 15.9627 26.6965 16.0542 26.5745 16.0966C26.4321 16.1441 26.2219 16.0288 26.1423 15.8559C26.0626 15.6865 26.1117 15.4932 26.2575 15.3949C26.3507 15.3322 26.3592 15.2831 26.2897 15.1848C26.244 15.1187 26.2372 15.0915 26.2287 14.9492C26.2219 14.861 26.2067 14.7085 26.1948 14.6102C26.1558 14.3203 26.1473 14.0831 26.1728 14.0339C26.2151 13.9542 26.2948 13.939 26.4151 13.9831ZM16.3779 14.217C16.3931 14.2322 16.4321 14.3068 16.4677 14.3814C16.5016 14.4559 16.5812 14.6254 16.6456 14.7593C16.7101 14.8932 16.7626 15.0068 16.7626 15.0136C16.7626 15.0187 16.7948 15.0898 16.8321 15.1695C17.0202 15.5593 17.2185 15.9814 17.2626 16.0848C17.2846 16.1373 17.3592 16.2983 17.4287 16.4424C17.4982 16.5865 17.5795 16.761 17.6084 16.8305C17.6389 16.9 17.7016 17.0305 17.749 17.1187L17.8338 17.2797L17.8067 17.3542C17.7914 17.3949 17.7829 17.4339 17.788 17.4407C17.7931 17.4475 17.8321 17.4593 17.8762 17.4661C18.0456 17.4898 18.1643 17.5661 18.2558 17.7102C18.349 17.8542 18.3117 18.0305 18.1592 18.1729C18.1321 18.1966 18.0779 18.2339 18.0372 18.2542C17.9456 18.3017 17.8304 18.2932 17.7236 18.2288C17.6304 18.1746 17.6084 18.1509 17.544 18.0271C17.4575 17.8644 17.4745 17.7915 17.6389 17.5983C17.6812 17.5492 17.7101 17.5017 17.7033 17.4915C17.6982 17.4831 17.6677 17.4746 17.6372 17.4746C17.5643 17.4746 17.4965 17.4203 17.4575 17.3322C17.4406 17.2932 17.3965 17.1983 17.3592 17.1187C17.3219 17.039 17.188 16.7492 17.0592 16.4746C16.9321 16.2 16.8168 15.961 16.805 15.9407C16.7931 15.922 16.7779 15.8881 16.7711 15.8644C16.7643 15.8407 16.7016 15.7051 16.6338 15.5627C16.5643 15.4203 16.5084 15.2983 16.5084 15.2932C16.5084 15.2881 16.4829 15.2305 16.4507 15.1627C16.4185 15.0966 16.3406 14.9356 16.2795 14.8051C16.2185 14.6746 16.1592 14.5526 16.149 14.5339C16.0728 14.3983 16.0711 14.3831 16.1185 14.2881C16.1423 14.2407 16.1677 14.217 16.2084 14.2051C16.2931 14.1797 16.349 14.1848 16.3779 14.217ZM9.29141 15.1932C9.57955 15.3305 9.70666 15.6576 9.57955 15.9373C9.49141 16.1288 9.28124 16.2831 9.08124 16.3017C8.99988 16.3085 8.9609 16.3017 8.86768 16.2644C8.73548 16.2136 8.60666 16.1085 8.55751 16.0153C8.53548 15.9712 8.51344 15.9492 8.49141 15.9492C8.45921 15.9492 8.45751 15.9373 8.45751 15.7204C8.45751 15.5136 8.4609 15.4915 8.48802 15.4915C8.50497 15.4915 8.54056 15.4526 8.57446 15.3983C8.72361 15.161 9.03548 15.0712 9.29141 15.1932ZM26.0812 15.9983C26.1406 16.0288 26.2202 16.1373 26.2202 16.1881C26.2202 16.2 26.0812 16.3509 25.9101 16.5237C25.7406 16.6966 25.4948 16.9509 25.3643 17.0865C25.2338 17.222 25.044 17.4203 24.9406 17.5271C24.8389 17.6339 24.5897 17.8932 24.3897 18.1017C23.7897 18.7271 23.2677 19.2712 22.8456 19.7102C22.627 19.9373 22.3507 20.2271 22.2304 20.3542C22.1101 20.4814 21.9151 20.6831 21.7965 20.8051C21.6795 20.9254 21.4016 21.2153 21.1779 21.4492C20.4084 22.2559 20.3406 22.322 20.2948 22.322C20.2219 22.322 20.1236 22.261 20.1033 22.2017C20.0626 22.0848 19.9219 22.2458 21.6423 20.4559C22.1134 19.9678 22.5643 19.4983 22.644 19.4153C22.7236 19.3305 22.8965 19.1526 23.0253 19.017C23.1558 18.8814 23.4185 18.6068 23.6101 18.4068C23.8016 18.2068 24.0829 17.9119 24.2372 17.7542C24.3914 17.5949 24.5779 17.4017 24.6524 17.322C24.7253 17.2424 24.9084 17.0526 25.0592 16.8983C25.2084 16.7441 25.4711 16.4712 25.6406 16.2915C25.8372 16.0865 25.9643 15.9661 25.9846 15.9661C26.0033 15.9661 26.0473 15.9814 26.0812 15.9983ZM9.95921 16.3085C10.0863 16.4237 10.2728 16.5898 10.3728 16.678C10.4711 16.7661 10.688 16.961 10.8541 17.1102C11.0202 17.2593 11.2456 17.461 11.3558 17.5593C11.466 17.6576 11.6795 17.8475 11.8304 17.9831C12.166 18.2831 12.3914 18.4848 12.7897 18.839C12.9558 18.9865 13.0965 19.1136 13.1016 19.1187C13.1117 19.1305 13.5084 19.4865 13.7456 19.6949C14.8507 20.6729 14.888 20.7119 14.8558 20.8136C14.8423 20.8559 14.7101 20.9492 14.6626 20.9492C14.644 20.9492 14.5541 20.8831 14.4626 20.8C14.2033 20.5712 13.8643 20.2695 13.5846 20.017C13.2982 19.7593 12.7779 19.2932 12.6202 19.1542C12.5626 19.1051 12.4829 19.0322 12.4406 18.9932C12.3677 18.9254 12.1812 18.7593 11.8897 18.5017C11.6745 18.3102 11.4151 18.078 11.4067 18.0678C11.3931 18.0509 9.9948 16.8017 9.75073 16.5881C9.62531 16.478 9.51514 16.3695 9.50497 16.3458C9.48802 16.3102 9.4931 16.2949 9.53717 16.2322C9.58124 16.1712 9.67616 16.1017 9.71514 16.1017C9.72192 16.1017 9.83209 16.1949 9.95921 16.3085ZM17.6219 18.2746C17.705 18.3542 17.6999 18.4305 17.6067 18.539C17.466 18.7 16.9389 19.3407 16.5287 19.8475C16.4575 19.9356 16.3134 20.1068 16.2117 20.2288C16.1084 20.3492 15.9541 20.539 15.866 20.6475C15.6948 20.8627 15.6406 20.8983 15.5524 20.8644C15.4846 20.839 15.4677 20.8593 15.505 20.922C15.5236 20.9526 15.5507 21.017 15.566 21.0644C15.5931 21.1458 15.5931 21.1593 15.5677 21.2576C15.5355 21.3865 15.4863 21.4407 15.344 21.5119C15.2524 21.5559 15.2253 21.5627 15.1507 21.5542C15.0423 21.5407 14.9219 21.4678 14.8575 21.3763C14.8185 21.322 14.805 21.2814 14.7999 21.2051C14.7795 20.9237 14.9677 20.7559 15.2914 20.7661L15.4151 20.7712L15.4236 20.6949C15.4321 20.6305 15.4507 20.5949 15.5338 20.4983C15.5897 20.4322 15.7151 20.2797 15.8134 20.161C15.9117 20.0424 16.0914 19.8254 16.2117 19.678C16.3338 19.5322 16.5084 19.3187 16.6016 19.2034C16.6948 19.0898 16.8711 18.8763 16.9914 18.7305C17.1134 18.5848 17.2524 18.4153 17.3016 18.3526C17.3524 18.2881 17.405 18.2288 17.4202 18.2204C17.4694 18.1898 17.5609 18.2153 17.6219 18.2746ZM15.8456 21.4831C15.9287 21.5492 16.2202 21.7763 16.4575 21.9576C16.6728 22.122 16.9016 22.2966 16.9931 22.3695C17.0507 22.4136 17.1829 22.5136 17.288 22.5932C17.3914 22.6729 17.6321 22.8559 17.8202 23C18.0067 23.1458 18.2304 23.317 18.3134 23.3814C18.3982 23.4458 18.5914 23.5932 18.7456 23.7102C18.8999 23.8254 19.0338 23.9322 19.0456 23.9475C19.0575 23.9627 19.0677 24.0017 19.0677 24.0356C19.0677 24.0881 19.0575 24.1068 18.9931 24.1593C18.8728 24.2576 18.8728 24.2576 18.549 24.0034C18.4372 23.917 18.3134 23.8204 18.2711 23.7881C18.2287 23.7559 18.1219 23.6746 18.0338 23.6051C17.9456 23.5373 17.7626 23.3966 17.627 23.2949C17.3982 23.1203 17.3117 23.0542 17.0694 22.8678C17.0168 22.8271 16.9067 22.7424 16.8219 22.678C16.7389 22.6153 16.5897 22.5 16.4914 22.4254C16.3287 22.2983 16.2084 22.2068 15.7711 21.8746C15.4779 21.6509 15.4575 21.6187 15.5287 21.4966C15.5779 21.4136 15.5863 21.4068 15.6762 21.4068C15.7389 21.4068 15.7643 21.4187 15.8456 21.4831ZM19.9117 22.2136C20.0389 22.2509 20.1372 22.3559 20.188 22.5068C20.2236 22.6119 20.2236 22.6187 20.1965 22.7034C20.1762 22.7695 20.1456 22.8136 20.0846 22.8712C19.9779 22.9712 19.9101 23 19.7795 23C19.6762 23 19.6745 23 19.5728 22.9017C19.3677 22.7085 19.3507 22.5373 19.5219 22.339C19.5812 22.2678 19.7236 22.1865 19.7846 22.1865C19.8033 22.1865 19.8592 22.1983 19.9117 22.2136ZM19.7202 23.0915C19.8711 23.1271 19.8948 23.1848 19.8321 23.3593C19.8134 23.4085 19.7897 23.4983 19.7795 23.5593C19.7694 23.6203 19.749 23.722 19.7355 23.7848C19.7101 23.8898 19.7016 23.9034 19.6338 23.9509C19.5473 24.0102 19.549 24.0237 19.6541 24.0983C19.7321 24.1559 19.7728 24.2288 19.7965 24.3576C19.8185 24.4695 19.8355 24.4881 19.8643 24.4339C19.8914 24.3831 19.9762 24.339 20.049 24.339C20.0779 24.339 20.1948 24.361 20.3101 24.3881C20.4236 24.4153 20.5592 24.4458 20.6101 24.4559C20.6609 24.4661 20.7575 24.4848 20.8219 24.5C20.9575 24.5305 21.0745 24.5542 21.4321 24.6271C21.5728 24.6559 21.7711 24.7 21.8728 24.7237C21.9762 24.7475 22.1507 24.7848 22.2626 24.8051C22.3745 24.8271 22.5762 24.8678 22.7118 24.8966C22.8473 24.9271 23.0338 24.9661 23.127 24.9865C23.3406 25.0305 23.4287 25.0712 23.4745 25.1475C23.4931 25.1797 23.5185 25.2034 23.5304 25.2C23.5406 25.1949 23.5745 25.1559 23.605 25.1102C23.6863 24.9881 23.7745 24.9051 23.8795 24.8526C23.9592 24.8136 23.9965 24.8068 24.1101 24.8068C24.2287 24.8051 24.2575 24.8119 24.349 24.8593C24.566 24.9729 24.7118 25.2119 24.6897 25.422C24.6677 25.6322 24.5473 25.8051 24.3524 25.9068C24.244 25.9644 24.2168 25.9712 24.1101 25.9712C24.0168 25.9695 23.9694 25.9593 23.8897 25.922C23.7016 25.8339 23.5558 25.6441 23.5338 25.4559C23.5219 25.3627 23.4948 25.2712 23.4779 25.2712C23.4728 25.2712 23.4524 25.2865 23.4338 25.3034C23.3473 25.3848 23.3134 25.3898 23.1558 25.3458C23.0745 25.3237 22.9287 25.2932 22.8304 25.278C22.7321 25.2644 22.6067 25.2373 22.5507 25.2204C22.4948 25.2051 22.4117 25.1848 22.3643 25.1797C22.3185 25.1729 22.2219 25.1526 22.1524 25.1356C22.0829 25.1187 21.9524 25.0915 21.8643 25.0763C21.7762 25.0627 21.6423 25.0356 21.5677 25.017C21.4931 25 21.3524 24.9678 21.2541 24.9475C21.1558 24.9271 20.9812 24.8898 20.8643 24.8627C20.7473 24.8373 20.5779 24.8034 20.4863 24.7881C20.3965 24.7729 20.3016 24.7542 20.2762 24.7441C20.2524 24.7356 20.1694 24.7153 20.0948 24.7C19.944 24.6712 19.8931 24.6373 19.8609 24.5475C19.849 24.517 19.8355 24.4915 19.8287 24.4915C19.8219 24.4915 19.7982 24.5237 19.7745 24.5627C19.7151 24.6644 19.6423 24.7288 19.5202 24.7881C19.4287 24.8322 19.4151 24.8441 19.4202 24.8814C19.4338 24.9797 19.4287 25.0509 19.3948 25.1865C19.3338 25.4305 19.188 25.9966 19.127 26.2288C19.0948 26.3492 19.0575 26.4949 19.044 26.5509C19.0304 26.6068 19.0067 26.6983 18.9931 26.7542C18.8982 27.122 18.705 27.9068 18.688 27.9949C18.6626 28.1187 18.649 28.1373 18.5592 28.178C18.4863 28.2102 18.4762 28.2373 18.5168 28.2712C18.5321 28.2831 18.5779 28.339 18.6185 28.3932C18.688 28.4865 18.6948 28.5034 18.6948 28.5949C18.6948 28.7237 18.6456 28.8288 18.5524 28.9068C18.4626 28.9797 18.4033 29.0017 18.2931 29.0017C18.1829 29.0017 18.1101 28.9627 17.9456 28.8153C17.905 28.7797 17.8982 28.778 17.888 28.8034C17.8829 28.8187 17.8812 28.8509 17.8863 28.8763C17.9033 28.9678 17.844 29.039 17.7253 29.0678C17.6948 29.0763 17.6016 29.1051 17.5202 29.1339C17.3117 29.2068 17.2846 29.2051 17.2117 29.1051C17.0931 28.9441 17.1253 28.9136 17.5863 28.7373C17.6592 28.7102 17.7219 28.6949 17.7423 28.7017C17.7609 28.7085 17.7948 28.7085 17.8185 28.7034C17.8524 28.6949 17.8626 28.6763 17.8812 28.5966C17.9236 28.4068 18.0626 28.2542 18.227 28.217C18.3304 28.1932 18.344 28.1763 18.3338 28.0763C18.3287 28.0187 18.3355 27.961 18.3575 27.8983C18.3745 27.8475 18.3965 27.7559 18.4067 27.6983C18.4168 27.639 18.4389 27.5424 18.4575 27.4865C18.4745 27.4288 18.5117 27.278 18.5423 27.1526C18.5728 27.0271 18.6101 26.878 18.627 26.822C18.6456 26.7661 18.6711 26.6593 18.6846 26.5848C18.6999 26.5102 18.7423 26.3339 18.7795 26.1949C18.8168 26.0542 18.8728 25.822 18.9067 25.678C18.9406 25.5339 18.9863 25.3542 19.0084 25.2797C19.0304 25.2051 19.0541 25.1136 19.0592 25.0763C19.0779 24.9576 19.1016 24.9051 19.1524 24.8559C19.1812 24.8288 19.2033 24.7932 19.2033 24.7763C19.2033 24.7576 19.1711 24.7085 19.1304 24.6644C19.049 24.5746 18.9999 24.4797 18.9999 24.4102C18.9999 24.3831 19.0151 24.317 19.0338 24.261C19.0711 24.1526 19.0863 24.139 19.3219 24.0153C19.4117 23.9661 19.4253 23.922 19.3711 23.8458C19.3338 23.7932 19.3338 23.7898 19.3609 23.7051C19.3829 23.6322 19.4389 23.3983 19.4829 23.1983C19.4931 23.1458 19.5626 23.0678 19.5965 23.0678C19.6084 23.0678 19.6643 23.0797 19.7202 23.0915ZM16.7406 28.7322C16.8219 28.7627 16.866 28.7949 16.988 28.922L17.1355 29.0746V29.2204C17.1355 29.3017 17.1253 29.4034 17.1117 29.4475C17.0812 29.5492 16.9677 29.7 16.8812 29.7542C16.844 29.778 16.8134 29.8085 16.8134 29.822C16.8134 29.8441 16.7728 29.8475 16.5507 29.8475C16.344 29.8475 16.288 29.8424 16.288 29.8254C16.288 29.8119 16.2541 29.778 16.2134 29.7492C16.1236 29.6848 16.0321 29.5627 15.9914 29.4542C15.949 29.3407 15.9626 29.1576 16.0219 29.0424C16.088 28.9136 16.2253 28.7898 16.3558 28.739C16.4948 28.6865 16.6101 28.6831 16.7406 28.7322Z" fill="#0E0E0E"/>
<path d="M36.142 9.20848C35.8522 9.49831 35.8132 9.54577 35.8132 9.60509C35.8132 9.64916 35.8895 9.78815 35.9742 9.89831C36.0149 9.94916 36.0946 10.0746 36.1522 10.178C36.2098 10.2797 36.2827 10.4017 36.3132 10.4492C36.3437 10.4949 36.4268 10.6441 36.4997 10.7797C36.5725 10.9153 36.6522 11.0559 36.6759 11.0932C36.7014 11.1305 36.7471 11.2203 36.7776 11.2915C36.8098 11.3644 36.8624 11.4712 36.8963 11.5305C36.9302 11.5881 36.9861 11.7017 37.0217 11.7797C37.059 11.8593 37.1251 12 37.1692 12.0932C37.3081 12.378 37.3556 12.4865 37.3556 12.5119C37.3556 12.5271 37.4064 12.6441 37.4675 12.7729C37.5285 12.9034 37.5895 13.0458 37.6014 13.0932C37.6471 13.2542 37.742 13.517 37.7759 13.5763C37.8149 13.6424 37.8776 13.8254 37.9505 14.0763C38.0115 14.2898 38.0946 14.5424 38.1386 14.6526C38.1573 14.6983 38.1827 14.7898 38.1946 14.8559C38.2217 15.0034 38.3064 15.3424 38.3725 15.5678C38.4302 15.7644 38.5081 16.1475 38.5573 16.4763C38.5776 16.6034 38.6047 16.739 38.6183 16.7797C38.6319 16.8203 38.6556 16.9492 38.6692 17.0661C38.6827 17.1831 38.7098 17.3678 38.7285 17.4746C38.759 17.661 38.7827 17.8966 38.8047 18.2288C38.8098 18.3119 38.8251 18.5339 38.8386 18.7203C38.9014 19.5949 38.9047 20.539 38.8471 21.0509C38.8369 21.1305 38.8183 21.378 38.8047 21.6034C38.7793 22.0237 38.7624 22.1881 38.72 22.4068C38.7064 22.4763 38.6878 22.6288 38.6776 22.7458C38.6675 22.8627 38.6403 23.0305 38.6183 23.1203C38.5946 23.2085 38.5675 23.3576 38.5573 23.4509C38.5471 23.5424 38.52 23.6814 38.498 23.7559C38.4759 23.8322 38.4454 23.9729 38.4319 24.0678C38.4166 24.1627 38.3895 24.2746 38.3708 24.317C38.3539 24.3576 38.3285 24.461 38.3132 24.5475C38.2997 24.6339 38.2725 24.7441 38.2539 24.7949C38.2353 24.8441 38.2081 24.9356 38.1946 25C38.181 25.0627 38.1539 25.1542 38.1353 25.2034C38.1149 25.2542 38.0878 25.3525 38.0725 25.422C38.059 25.4932 38.0319 25.578 38.0149 25.6119C37.998 25.6458 37.9708 25.7254 37.9556 25.7898C37.9403 25.8542 37.9115 25.9441 37.8895 25.9915C37.8692 26.0373 37.8437 26.1119 37.8336 26.1542C37.8217 26.1983 37.7912 26.2814 37.7624 26.3407C37.7353 26.4 37.7115 26.4627 37.7115 26.4814C37.7115 26.4983 37.6844 26.5712 37.6522 26.6441C37.62 26.717 37.5929 26.7864 37.5929 26.8C37.5929 26.8119 37.5658 26.878 37.5336 26.9475C37.5014 27.0153 37.4742 27.0848 37.4742 27.1017C37.4742 27.1187 37.4522 27.1763 37.4234 27.2288C37.3963 27.2814 37.3725 27.3322 37.3725 27.3424C37.3725 27.3509 37.3386 27.4288 37.2963 27.5153C37.2539 27.6034 37.22 27.6831 37.22 27.6949C37.22 27.7068 37.198 27.7526 37.1725 27.7949C37.1454 27.8373 37.1183 27.8949 37.1115 27.9237C37.1047 27.9509 37.0776 28.0085 37.0522 28.0525C37.0251 28.0949 36.998 28.1475 36.9912 28.1712C36.9844 28.1932 36.9573 28.2458 36.9319 28.2898C36.9064 28.3322 36.8793 28.3848 36.8725 28.4085C36.8658 28.4305 36.8403 28.4831 36.8149 28.5254C36.7895 28.5678 36.759 28.6271 36.7488 28.6559C36.7386 28.6864 36.7081 28.7441 36.681 28.7831C36.6539 28.8237 36.6251 28.8729 36.6183 28.8949C36.6115 28.917 36.5692 28.9966 36.5251 29.0729C36.4793 29.1492 36.3929 29.2949 36.3336 29.3983C36.0912 29.8119 36.0386 29.9 35.9268 30.0627C35.9064 30.0915 35.8403 30.1949 35.7793 30.2898C35.7183 30.3848 35.6319 30.5102 35.5844 30.5695C35.5386 30.6271 35.4725 30.7203 35.4403 30.7746C35.4081 30.8288 35.3166 30.9593 35.2369 31.0661C35.1573 31.1712 35.0776 31.278 35.059 31.3034C34.9607 31.4373 34.7268 31.7339 34.6522 31.8203C34.442 32.0661 34.0149 32.5509 33.8573 32.7203C33.681 32.9119 32.9793 33.6203 32.8895 33.6949C32.8607 33.7187 32.7963 33.7746 32.7454 33.8187C32.6946 33.8644 32.6234 33.9254 32.5861 33.9542C32.4336 34.0797 32.22 34.2678 32.1098 34.3729C31.9759 34.5017 31.7573 34.678 31.6946 34.7119C31.6708 34.7237 31.6336 34.7492 31.6098 34.7661C31.5861 34.7848 31.5251 34.8322 31.4725 34.8695C31.42 34.9085 31.3285 34.9831 31.2692 35.0356C31.2098 35.0864 31.1031 35.1627 31.0336 35.2034C30.8878 35.2898 30.7471 35.3881 30.7132 35.4305C30.681 35.4695 30.5183 35.5763 30.4912 35.5763C30.4607 35.5763 30.3319 35.6576 30.2471 35.7288C30.1556 35.8085 30.0454 35.8814 30.0183 35.8814C29.9844 35.8814 29.8454 35.9661 29.7641 36.0373C29.7234 36.0729 29.681 36.1017 29.6708 36.1017C29.6607 36.1034 29.6217 36.117 29.5844 36.1356C29.5471 36.1542 29.5064 36.1678 29.4963 36.1695C29.4844 36.1695 29.4454 36.1949 29.4115 36.2271C29.3386 36.2915 29.1861 36.3729 29.1386 36.3729C29.1217 36.3729 29.0929 36.3881 29.0776 36.4051C29.0302 36.4576 28.8539 36.5593 28.8081 36.5593C28.7861 36.5593 28.7336 36.5848 28.6929 36.6153C28.5759 36.7034 28.4929 36.7458 28.4386 36.7458C28.4064 36.7458 28.3675 36.7661 28.3234 36.8051C28.2878 36.8373 28.2454 36.8644 28.2302 36.8644C28.1793 36.8644 27.9861 36.9509 27.9471 36.9932C27.9183 37.0237 27.8912 37.0339 27.8386 37.0339C27.7895 37.0339 27.759 37.0441 27.7369 37.0678C27.7217 37.0848 27.6725 37.1136 27.6285 37.1288C27.5861 37.1458 27.5437 37.1644 27.5353 37.1729C27.5251 37.1797 27.498 37.1864 27.4708 37.1864C27.4437 37.1864 27.4014 37.2068 27.3675 37.2373C27.3234 37.2763 27.2929 37.2881 27.242 37.2881C27.1912 37.2881 27.1573 37.3017 27.1081 37.3407C27.059 37.3797 27.0302 37.3898 26.9963 37.3831C26.9675 37.378 26.9369 37.3848 26.9115 37.4051C26.8675 37.4373 26.6353 37.5254 26.5895 37.5254C26.5742 37.5254 26.5369 37.5458 26.5081 37.5712C26.4675 37.6051 26.4369 37.6153 26.3912 37.6136C26.342 37.6102 26.3115 37.622 26.2641 37.6593C26.2115 37.7017 26.1929 37.7068 26.159 37.6932C26.1047 37.6729 26.1166 37.6695 26.0403 37.7305C25.9861 37.7729 25.9658 37.7797 25.9132 37.7712C25.8641 37.7627 25.8437 37.7678 25.8014 37.8034C25.7624 37.8356 25.7285 37.8475 25.6759 37.8475C25.6285 37.8475 25.5861 37.861 25.559 37.8814C25.5319 37.9017 25.4895 37.9153 25.4454 37.9153C25.398 37.9153 25.3539 37.9288 25.3132 37.9559C25.2675 37.9881 25.2386 37.9949 25.1946 37.9881C25.1471 37.9814 25.12 37.9881 25.0675 38.0254C25.0081 38.0661 24.9946 38.0695 24.9471 38.0525C24.8997 38.0356 24.8878 38.039 24.842 38.078C24.7963 38.1153 24.7793 38.1203 24.7149 38.1119C24.6505 38.1034 24.6319 38.1085 24.5895 38.1441C24.5454 38.1814 24.5268 38.1864 24.4641 38.1763C24.4064 38.1678 24.3793 38.1729 24.3336 38.2017C24.2929 38.2271 24.2471 38.2373 24.1844 38.2373C24.1251 38.2373 24.0776 38.2475 24.0505 38.2661C24.0217 38.2864 23.9742 38.2966 23.9064 38.2966C23.8353 38.2966 23.7878 38.3068 23.7556 38.3271C23.7183 38.3525 23.6912 38.3559 23.6251 38.3475C23.5556 38.3373 23.5336 38.3407 23.5047 38.3661C23.4793 38.3898 23.442 38.3983 23.3573 38.4C23.2861 38.4 23.2251 38.4119 23.1878 38.4305C23.1454 38.4542 23.1098 38.4576 23.0353 38.4509C22.959 38.4407 22.9319 38.4458 22.8929 38.4712C22.8522 38.4983 22.8234 38.5034 22.7353 38.4949C22.6539 38.4898 22.6183 38.4932 22.5861 38.5153C22.5353 38.5475 22.4929 38.5492 22.4047 38.5237C22.3488 38.5068 22.3336 38.5085 22.2793 38.5424C22.2251 38.5763 22.2031 38.5797 22.1098 38.5695C22.02 38.561 21.9912 38.5644 21.9353 38.5932C21.8827 38.6203 21.859 38.6254 21.8234 38.6102C21.7539 38.5848 21.6488 38.5898 21.5997 38.6203C21.5692 38.6407 21.5403 38.6458 21.4861 38.6356C21.4471 38.6305 21.3895 38.6203 21.359 38.6153C21.3217 38.6085 21.2827 38.617 21.2454 38.6373C21.1929 38.6644 21.1759 38.6661 21.0539 38.6458C20.9336 38.6254 20.9132 38.6271 20.8641 38.6525C20.8149 38.678 20.7946 38.6797 20.6776 38.6593C20.5658 38.6424 20.5369 38.6424 20.481 38.6644C20.4268 38.6848 20.3963 38.6864 20.3047 38.6695C20.2183 38.6559 20.1776 38.6559 20.1132 38.6746C20.042 38.6932 20.0132 38.6932 19.8946 38.6695C19.82 38.6542 19.7319 38.6458 19.7014 38.6509C19.6692 38.6559 19.6166 38.6661 19.5844 38.6712C19.5471 38.678 19.4776 38.6695 19.4064 38.6509C19.3098 38.6271 19.2793 38.6237 19.2234 38.6407C19.1285 38.6695 19.0641 38.6661 18.9454 38.6254C18.842 38.5881 18.8386 38.5881 18.7505 38.6187C18.6658 38.6475 18.6539 38.6475 18.5708 38.622C18.4031 38.5712 18.2912 38.5559 18.1573 38.5678C18.042 38.578 18.0149 38.5746 17.9403 38.5407C17.8692 38.5085 17.8234 38.5017 17.6403 38.4983C17.4573 38.4949 17.4064 38.4881 17.2929 38.4492C17.1878 38.4119 17.1234 38.4017 16.9827 38.3983C16.8319 38.3949 16.7692 38.3831 16.5759 38.3254C16.3624 38.2627 16.1878 38.2322 16.0539 38.2356C16.0234 38.2373 15.9624 38.2237 15.9183 38.2051C15.8742 38.1881 15.8014 38.1627 15.7539 38.1475C15.7081 38.1339 15.6471 38.1136 15.6183 38.1051C15.5149 38.0695 15.3115 38.0187 15.2369 38.0085C15.0047 37.9797 14.9047 37.9509 14.3641 37.7492C14.2895 37.7203 14.2031 37.6898 14.1742 37.6797C14.1437 37.6695 14.0929 37.6525 14.0641 37.6424C14.0336 37.6322 13.9708 37.6119 13.9234 37.5983C13.8776 37.5831 13.8031 37.5542 13.7607 37.5322C13.7166 37.5102 13.659 37.4915 13.6336 37.4915C13.6064 37.4915 13.559 37.4763 13.5268 37.4559C13.4946 37.4373 13.4183 37.4068 13.3573 37.3898C13.2963 37.3729 13.2014 37.3407 13.1471 37.3153C13.0929 37.2915 13.0369 37.2712 13.02 37.2712C13.0047 37.2712 12.9573 37.2492 12.9149 37.2203C12.8742 37.1932 12.8166 37.1661 12.7878 37.1593C12.7607 37.1525 12.6793 37.1187 12.6098 37.0831C12.5403 37.0458 12.4675 37.017 12.4488 37.017C12.4302 37.017 12.3742 36.9898 12.3268 36.9576C12.2776 36.9254 12.2251 36.8983 12.2115 36.8983C12.1963 36.8983 12.1098 36.861 12.02 36.8153C11.5827 36.5932 11.4776 36.5424 11.4505 36.5424C11.4353 36.5424 11.381 36.517 11.3336 36.4848C11.2844 36.4542 11.1827 36.4 11.1098 36.3644C11.0353 36.3305 10.9369 36.2729 10.8895 36.2373C10.8437 36.2017 10.7776 36.161 10.7454 36.1441C10.7132 36.1271 10.6302 36.0763 10.5624 36.0305C10.4946 35.9848 10.3573 35.9068 10.2573 35.8559C10.1522 35.8034 10.0505 35.739 10.0166 35.7034C9.90983 35.5915 9.81322 35.5644 9.72508 35.6237C9.69966 35.6407 9.58949 35.7441 9.47932 35.8559C9.36915 35.9678 9.24542 36.0864 9.20644 36.1203C9.15051 36.1678 9.13525 36.1932 9.13525 36.2339C9.13525 36.3119 9.16407 36.3593 9.23356 36.4051C9.26746 36.4271 9.31661 36.4593 9.34203 36.478C9.36746 36.4949 9.39458 36.5085 9.40305 36.5085C9.40983 36.5085 9.49288 36.5559 9.5861 36.6153C9.67763 36.6746 9.79627 36.7441 9.84712 36.7695C9.89797 36.7966 9.98102 36.8542 10.0336 36.8983C10.1285 36.9814 10.2166 37.0339 10.259 37.0339C10.2725 37.0339 10.3319 37.0661 10.3912 37.1051C10.4505 37.1441 10.5607 37.2 10.6336 37.2322C10.7081 37.2627 10.8132 37.3187 10.8658 37.3559C10.9183 37.3932 10.9692 37.4237 10.9776 37.4237C10.9997 37.4237 11.1336 37.4983 11.2353 37.5661C11.2844 37.6 11.3369 37.6271 11.3539 37.6271C11.3692 37.6271 11.42 37.6525 11.4658 37.6831C11.5132 37.7136 11.5844 37.7525 11.6268 37.7695C11.6692 37.7881 11.7793 37.839 11.8742 37.8848C11.9675 37.9288 12.0556 37.9661 12.0675 37.9661C12.0793 37.9661 12.1268 37.9898 12.1725 38.017C12.2166 38.0458 12.2692 38.0678 12.2861 38.0678C12.3031 38.0678 12.3776 38.0949 12.4505 38.1288C12.5251 38.1627 12.5997 38.1949 12.6183 38.2017C12.6369 38.2102 12.7031 38.239 12.7675 38.2678C12.8302 38.2983 12.8963 38.322 12.9132 38.322C12.9319 38.322 12.9793 38.3407 13.0183 38.3644C13.059 38.3881 13.1064 38.4068 13.1234 38.4068C13.1403 38.4068 13.2031 38.4288 13.2624 38.4576C13.3217 38.4848 13.3827 38.5085 13.3946 38.5085C13.4081 38.5085 13.4607 38.5271 13.5098 38.5492C13.5946 38.5881 13.7742 38.6424 13.9403 38.6814C13.9776 38.6898 14.0556 38.7119 14.1132 38.7305C14.1708 38.7475 14.2336 38.7627 14.2539 38.7627C14.2725 38.7627 14.3183 38.778 14.3556 38.7966C14.3929 38.8153 14.4403 38.8305 14.4607 38.8305C14.4827 38.8305 14.5403 38.8492 14.5895 38.8729C14.6403 38.8966 14.6946 38.9153 14.7132 38.9153C14.7302 38.9153 14.7844 38.9339 14.8336 38.9559C14.998 39.0288 15.2844 39.1017 15.4573 39.1102C15.542 39.1153 15.8285 39.1932 15.9031 39.2322C15.9708 39.2661 16.1217 39.2932 16.2708 39.2983C16.398 39.3017 16.6166 39.3492 16.7319 39.3983C16.7658 39.4119 16.8437 39.4237 16.9098 39.4237C17.1047 39.4237 17.2081 39.4373 17.3268 39.4831C17.4251 39.5187 17.4692 39.5254 17.6403 39.5254C17.7861 39.5271 17.8556 39.5339 17.9064 39.5559C17.9573 39.5763 18.0149 39.5831 18.1353 39.5797C18.2946 39.5763 18.4081 39.5915 18.5624 39.639C18.6336 39.661 18.6522 39.661 18.7437 39.6339C18.8437 39.6068 18.8488 39.6068 18.9471 39.6441C19.0251 39.6729 19.0675 39.6797 19.1217 39.6695C19.2403 39.6509 19.3759 39.6542 19.4522 39.678C19.5098 39.6966 19.5369 39.6966 19.6149 39.678C19.6793 39.6627 19.7353 39.661 19.7912 39.6695C19.8708 39.6848 19.9759 39.6864 20.1437 39.678C20.1912 39.6746 20.2607 39.678 20.3014 39.6864C20.3488 39.6949 20.4081 39.6915 20.4658 39.678C20.5386 39.661 20.5776 39.661 20.6692 39.678C20.7692 39.6966 20.7878 39.6966 20.8488 39.6678C20.9098 39.6424 20.9302 39.6407 21.0149 39.6576C21.142 39.6848 21.1895 39.6831 21.2302 39.6525C21.2725 39.6203 21.3725 39.6203 21.4573 39.6542C21.5217 39.6797 21.5268 39.6797 21.5861 39.6441C21.6403 39.6102 21.6607 39.6068 21.7742 39.617C21.8759 39.6271 21.9098 39.6237 21.942 39.6017C21.9725 39.5814 22.0081 39.578 22.0963 39.5864C22.1946 39.5949 22.2217 39.5915 22.281 39.561C22.3437 39.5271 22.3556 39.5271 22.4166 39.5492C22.4759 39.5695 22.4929 39.5695 22.5522 39.5458C22.5895 39.5305 22.6692 39.5187 22.7369 39.517C22.8217 39.517 22.8708 39.5085 22.9014 39.4881C22.9369 39.4644 22.9675 39.4593 23.0471 39.4678C23.1234 39.4763 23.159 39.4712 23.2031 39.4492C23.2454 39.4271 23.2827 39.422 23.3539 39.4288C23.4369 39.4373 23.4573 39.4339 23.5098 39.3966C23.5624 39.361 23.5776 39.3576 23.6183 39.3729C23.6742 39.3949 23.7505 39.3814 23.781 39.3458C23.7946 39.3288 23.8369 39.322 23.9166 39.322C24.0031 39.322 24.0471 39.3136 24.0912 39.2864C24.1369 39.2593 24.1675 39.2542 24.2234 39.2627C24.2844 39.2712 24.3047 39.2661 24.3522 39.2322C24.4014 39.1949 24.4132 39.1932 24.4725 39.2085C24.5319 39.2254 24.5454 39.222 24.598 39.1831C24.6454 39.1458 24.6675 39.139 24.7268 39.1475C24.7827 39.1559 24.8081 39.1492 24.8471 39.122C24.8793 39.0983 24.9183 39.0864 24.9692 39.0864C25.0098 39.0881 25.0759 39.0729 25.1183 39.0525C25.1607 39.0339 25.2183 39.017 25.2488 39.017C25.2793 39.017 25.342 39.0017 25.3895 38.9831C25.4369 38.9644 25.4997 38.9492 25.5302 38.9492C25.5607 38.9492 25.6014 38.9373 25.62 38.9254C25.6403 38.9119 25.6929 38.8915 25.7386 38.8814C25.7844 38.8712 25.8488 38.8509 25.881 38.8373C25.9132 38.8254 25.9708 38.8068 26.0081 38.7983C26.0759 38.7831 26.12 38.7695 26.2793 38.7119C26.3268 38.6949 26.3912 38.6763 26.4251 38.6712C26.4607 38.6644 26.5064 38.6458 26.5302 38.6271C26.5573 38.6068 26.598 38.5932 26.6403 38.5932C26.6895 38.5932 26.7234 38.5814 26.7641 38.5475C26.8031 38.5153 26.8336 38.5034 26.8759 38.5051C26.9166 38.5085 26.9539 38.4949 27.0064 38.4576C27.0624 38.417 27.0895 38.4068 27.1251 38.417C27.159 38.4254 27.181 38.4187 27.2081 38.3932C27.2573 38.3492 27.3115 38.322 27.3539 38.322C27.3912 38.322 27.4742 38.2898 27.598 38.2271C27.642 38.2051 27.6997 38.1864 27.7268 38.1864C27.759 38.1864 27.8014 38.1644 27.8488 38.1254C27.8895 38.0915 27.9353 38.0678 27.9556 38.0712C27.9946 38.0763 28.1217 38.0187 28.2234 37.9525C28.2573 37.9305 28.2997 37.9136 28.3166 37.9153C28.3725 37.922 28.3878 37.9153 28.4437 37.8661C28.4742 37.839 28.5251 37.8119 28.5556 37.8051C28.5861 37.7983 28.6319 37.7831 28.6573 37.7695C28.6827 37.7559 28.7115 37.7458 28.7217 37.7458C28.7319 37.7458 28.7708 37.7187 28.8081 37.6864C28.8505 37.6509 28.8963 37.6271 28.9234 37.6271C28.9675 37.6271 29.1302 37.5407 29.2183 37.4729C29.2403 37.4542 29.2725 37.4441 29.2878 37.4492C29.3047 37.4542 29.3742 37.417 29.4641 37.3559C29.5471 37.3 29.6319 37.2542 29.6539 37.2542C29.6946 37.2542 29.8132 37.1814 29.9115 37.0983C29.942 37.0729 29.9793 37.0509 29.9963 37.0509C30.0403 37.0509 30.181 36.9746 30.2539 36.9119C30.3403 36.8373 30.4353 36.7797 30.4725 36.7797C30.5081 36.7797 30.6217 36.7068 30.7251 36.617C30.7658 36.5831 30.8454 36.5305 30.903 36.5017C31.0285 36.439 31.198 36.3237 31.2454 36.2712C31.2641 36.2509 31.2946 36.2271 31.3132 36.2187C31.4285 36.1661 31.6319 36.0288 31.7827 35.9C31.9471 35.7593 32.0047 35.7153 32.0437 35.7C32.0624 35.6949 32.0997 35.6695 32.1302 35.6458C32.159 35.622 32.22 35.5746 32.2658 35.5424C32.3098 35.5102 32.4386 35.4034 32.5522 35.3051C32.6641 35.2068 32.8607 35.0441 32.9878 34.9441C33.542 34.5051 34.6997 33.3458 35.1827 32.7458C35.2556 32.6576 35.4081 32.4695 35.5251 32.3305C35.642 32.1898 35.7624 32.0424 35.7929 32C35.8234 31.9576 35.9454 31.7932 36.0641 31.6356C36.2522 31.3831 36.3319 31.2729 36.398 31.1678C36.4454 31.0932 36.52 30.9848 36.5675 30.9237C36.5963 30.8864 36.6471 30.8102 36.6776 30.7542C36.7098 30.6983 36.7658 30.6085 36.8047 30.5559C36.8658 30.4695 36.9132 30.3932 37.0658 30.139C37.0895 30.0983 37.1386 30.022 37.1742 29.9678C37.2081 29.9136 37.2369 29.861 37.2369 29.8492C37.2369 29.839 37.2641 29.7898 37.2963 29.739C37.3285 29.6881 37.3556 29.6407 37.3556 29.6356C37.3556 29.6288 37.3725 29.6 37.3929 29.5712C37.4132 29.5424 37.4522 29.4763 37.4793 29.4237C37.5047 29.3729 37.5607 29.2695 37.6031 29.1949C37.6454 29.1203 37.6912 29.0288 37.7047 28.9915C37.7183 28.9542 37.7471 28.8966 37.7692 28.8644C37.7912 28.8322 37.8166 28.778 37.8268 28.7458C37.8386 28.7136 37.8624 28.6627 37.881 28.6356C37.9285 28.5661 38.0573 28.2949 38.0844 28.2119C38.0963 28.1746 38.1166 28.1288 38.1285 28.1102C38.1403 28.0915 38.1624 28.0424 38.1793 28C38.1946 27.9576 38.2336 27.8712 38.2641 27.8068C38.2963 27.7424 38.3217 27.678 38.3217 27.6644C38.3217 27.6509 38.3403 27.6051 38.3641 27.5661C38.3878 27.5254 38.4217 27.4424 38.4403 27.3831C38.4607 27.322 38.4827 27.2678 38.4912 27.2627C38.4997 27.2576 38.5217 27.2034 38.5403 27.1441C38.559 27.0848 38.5929 27 38.6149 26.9542C38.6386 26.9102 38.6658 26.8322 38.6759 26.7831C38.6861 26.7339 38.7132 26.6576 38.7353 26.6136C38.7573 26.5695 38.7844 26.4983 38.7946 26.4576C38.8064 26.4153 38.8336 26.339 38.8573 26.2848C38.8793 26.2322 38.9064 26.1475 38.9166 26.0949C38.9251 26.0441 38.9556 25.9542 38.981 25.8949C39.0081 25.8356 39.0353 25.7509 39.042 25.7051C39.0488 25.6593 39.0708 25.5831 39.0912 25.5356C39.1132 25.4881 39.1403 25.3949 39.1522 25.3305C39.1641 25.2644 39.1912 25.1695 39.2132 25.117C39.2353 25.0644 39.2624 24.9542 39.2759 24.8712C39.2895 24.7881 39.3166 24.6797 39.3369 24.6305C39.3573 24.5814 39.3844 24.4644 39.398 24.3712C39.4115 24.278 39.4386 24.1542 39.459 24.0983C39.4776 24.0407 39.5014 23.9288 39.5098 23.8492C39.52 23.7695 39.5454 23.6305 39.5675 23.5424C39.5912 23.4542 39.62 23.2814 39.6353 23.161C39.6505 23.039 39.681 22.8305 39.7031 22.6949C39.7251 22.5593 39.7522 22.3339 39.7624 22.1949C39.7725 22.0542 39.7963 21.8526 39.8132 21.7458C39.8573 21.4848 39.8776 21.1237 39.8912 20.3305C39.9064 19.3559 39.8759 18.5136 39.8047 18.0763C39.7912 17.9915 39.7725 17.817 39.7624 17.6864C39.7522 17.5559 39.7217 17.3034 39.6946 17.1271C39.6692 16.9492 39.6386 16.7356 39.6268 16.6525C39.6166 16.5678 39.5895 16.4271 39.5692 16.339C39.5471 16.2509 39.5234 16.1339 39.5166 16.0797C39.5098 16.0254 39.4912 15.9407 39.4759 15.8932C39.4471 15.8119 39.4319 15.7373 39.3641 15.3729C39.3319 15.1949 39.2759 14.9814 39.22 14.822C39.1946 14.7475 39.159 14.6288 39.1437 14.5593C39.0946 14.3492 39.0505 14.1848 39.0064 14.0509C38.9166 13.7831 38.8929 13.717 38.8539 13.622C38.8319 13.5678 38.8132 13.5085 38.8132 13.4898C38.8132 13.4559 38.759 13.2831 38.72 13.1949C38.7081 13.1661 38.6844 13.1051 38.6675 13.0593C38.6505 13.0119 38.6234 12.9509 38.6081 12.9237C38.5912 12.8949 38.559 12.8119 38.5353 12.7373C38.4641 12.5136 38.442 12.4576 38.3454 12.261C38.2946 12.1576 38.2539 12.0644 38.2539 12.0559C38.2539 12.0322 38.1353 11.761 38.0454 11.5848C38.0047 11.5 37.9302 11.3458 37.8827 11.239C37.8336 11.1322 37.7776 11.0254 37.7556 11C37.7353 10.9746 37.7081 10.9271 37.6963 10.8966C37.6386 10.7441 37.5692 10.6017 37.5251 10.5509C37.5098 10.5322 37.4556 10.4407 37.4064 10.3475C37.2183 9.99492 37.198 9.95594 37.159 9.91018C37.1386 9.88475 37.0895 9.8034 37.0522 9.72882C37.0166 9.65594 36.9607 9.55933 36.9285 9.51696C36.8556 9.41357 36.7437 9.2356 36.6759 9.11357C36.6183 9.01018 36.5149 8.91526 36.4641 8.91696C36.4454 8.91696 36.3014 9.04916 36.142 9.20848Z" fill="#0E0E0E"/>
</g>
<path d="M50.4849 14C49.6899 14 49.1024 13.81 48.7224 13.43C48.3424 13.05 48.1524 12.4625 48.1524 11.6675C48.1524 10.8675 48.3424 10.2775 48.7224 9.8975C49.1024 9.5175 49.6899 9.3275 50.4849 9.3275H53.8224C53.8024 8.7125 53.6549 8.285 53.3799 8.045C53.1099 7.805 52.6449 7.685 51.9849 7.685H51.1149C50.5249 7.685 50.0899 7.7425 49.8099 7.8575C49.5349 7.9675 49.3574 8.16 49.2774 8.435C49.2274 8.585 49.1649 8.695 49.0899 8.765C49.0199 8.83 48.9124 8.8625 48.7674 8.8625C48.6124 8.8625 48.4899 8.82 48.3999 8.735C48.3149 8.645 48.2849 8.525 48.3099 8.375C48.4049 7.805 48.6824 7.39 49.1424 7.13C49.6024 6.87 50.2599 6.74 51.1149 6.74H51.9849C52.9449 6.74 53.6474 6.965 54.0924 7.415C54.5424 7.86 54.7674 8.5625 54.7674 9.5225V13.5275C54.7674 13.8425 54.6099 14 54.2949 14C53.9799 14 53.8224 13.8425 53.8224 13.5275V12.9125C53.3274 13.6375 52.4949 14 51.3249 14H50.4849ZM50.4849 13.055H51.3249C51.7749 13.055 52.1749 13.0075 52.5249 12.9125C52.8799 12.8175 53.1699 12.66 53.3949 12.44C53.6249 12.22 53.7674 11.9225 53.8224 11.5475V10.2725H50.4849C49.9499 10.2725 49.5849 10.37 49.3899 10.565C49.1949 10.76 49.0974 11.1275 49.0974 11.6675C49.0974 12.2025 49.1949 12.5675 49.3899 12.7625C49.5849 12.9575 49.9499 13.055 50.4849 13.055ZM59.4284 17C58.8334 17 58.3759 16.8775 58.0559 16.6325C57.7359 16.3875 57.5384 16.01 57.4634 15.5C57.4434 15.34 57.4734 15.215 57.5534 15.125C57.6384 15.04 57.7609 14.9975 57.9209 14.9975C58.0709 14.9975 58.1809 15.035 58.2509 15.11C58.3209 15.19 58.3734 15.3075 58.4084 15.4625C58.4534 15.6875 58.5534 15.8425 58.7084 15.9275C58.8634 16.0125 59.1034 16.055 59.4284 16.055H62.2184C62.6384 16.055 62.9184 15.9825 63.0584 15.8375C63.2034 15.6925 63.2759 15.4125 63.2759 14.9975V12.98C63.0359 13.315 62.7084 13.57 62.2934 13.745C61.8834 13.915 61.3784 14 60.7784 14H60.2084C59.2534 14 58.5509 13.775 58.1009 13.325C57.6509 12.875 57.4259 12.1775 57.4259 11.2325V9.5225C57.4259 8.5575 57.6484 7.8525 58.0934 7.4075C58.5434 6.9625 59.2484 6.74 60.2084 6.74H61.4384C61.8834 6.74 62.2559 6.8025 62.5559 6.9275C62.8559 7.0475 63.0959 7.235 63.2759 7.49V7.2125C63.2759 6.8975 63.4334 6.74 63.7484 6.74C64.0634 6.74 64.2209 6.8975 64.2209 7.2125V14.9975C64.2209 15.6825 64.0584 16.1875 63.7334 16.5125C63.4134 16.8375 62.9084 17 62.2184 17H59.4284ZM60.2084 13.055H60.7784C61.5184 13.055 62.1184 12.945 62.5784 12.725C63.0434 12.505 63.2759 12.17 63.2759 11.72V9.05C63.2759 8.54 63.1209 8.185 62.8109 7.985C62.5059 7.785 62.0484 7.685 61.4384 7.685H60.2084C59.5184 7.685 59.0384 7.815 58.7684 8.075C58.5034 8.335 58.3709 8.8175 58.3709 9.5225V11.2325C58.3709 11.9125 58.5034 12.3875 58.7684 12.6575C59.0384 12.9225 59.5184 13.055 60.2084 13.055ZM67.8227 10.745V11.2325C67.8227 11.9175 67.9552 12.3925 68.2202 12.6575C68.4902 12.9225 68.9702 13.055 69.6602 13.055H70.8902C71.4852 13.055 71.9177 12.985 72.1877 12.845C72.4627 12.705 72.6302 12.4625 72.6902 12.1175C72.7252 11.9675 72.7802 11.855 72.8552 11.78C72.9302 11.705 73.0427 11.6675 73.1927 11.6675C73.3477 11.6675 73.4652 11.71 73.5452 11.795C73.6302 11.875 73.6602 11.995 73.6352 12.155C73.5552 12.78 73.2877 13.245 72.8327 13.55C72.3827 13.85 71.7352 14 70.8902 14H69.6602C68.7052 14 68.0027 13.775 67.5527 13.325C67.1027 12.875 66.8777 12.1775 66.8777 11.2325V9.5225C66.8777 8.5525 67.1027 7.845 67.5527 7.4C68.0027 6.95 68.7052 6.73 69.6602 6.74H70.8902C71.8502 6.74 72.5527 6.965 72.9977 7.415C73.4477 7.86 73.6727 8.5625 73.6727 9.5225V10.2725C73.6727 10.5875 73.5152 10.745 73.2002 10.745H67.8227ZM69.6602 7.685C68.9702 7.675 68.4902 7.8025 68.2202 8.0675C67.9552 8.3325 67.8227 8.8175 67.8227 9.5225V9.8H72.7277V9.5225C72.7277 8.8275 72.5952 8.3475 72.3302 8.0825C72.0652 7.8175 71.5852 7.685 70.8902 7.685H69.6602ZM76.9544 14C76.6394 14 76.4819 13.8425 76.4819 13.5275V7.2125C76.4819 6.8975 76.6394 6.74 76.9544 6.74C77.2694 6.74 77.4269 6.8975 77.4269 7.2125V7.7675C77.9219 7.0825 78.7544 6.74 79.9244 6.74H80.3444C81.3044 6.74 82.0069 6.965 82.4519 7.415C82.9019 7.86 83.1269 8.5625 83.1269 9.5225V13.5275C83.1269 13.8425 82.9694 14 82.6544 14C82.3394 14 82.1819 13.8425 82.1819 13.5275V9.5225C82.1819 8.8275 82.0469 8.3475 81.7769 8.0825C81.5119 7.8175 81.0344 7.685 80.3444 7.685H79.9244C79.2094 7.685 78.6294 7.79 78.1844 8C77.7394 8.21 77.4869 8.5375 77.4269 8.9825V13.5275C77.4269 13.8425 77.2694 14 76.9544 14ZM88.5783 14C87.6233 14 86.9208 13.775 86.4708 13.325C86.0208 12.875 85.7958 12.1725 85.7958 11.2175V9.5075C85.7958 8.5475 86.0183 7.845 86.4633 7.4C86.9133 6.95 87.6183 6.73 88.5783 6.74H89.8083C90.5483 6.74 91.1183 6.865 91.5183 7.115C91.9183 7.36 92.1633 7.7475 92.2533 8.2775C92.2833 8.4325 92.2533 8.555 92.1633 8.645C92.0783 8.73 91.9533 8.7725 91.7883 8.7725C91.6433 8.7725 91.5358 8.735 91.4658 8.66C91.3958 8.58 91.3383 8.4725 91.2933 8.3375C91.2333 8.0975 91.0883 7.93 90.8583 7.835C90.6333 7.735 90.2833 7.685 89.8083 7.685H88.5783C87.8883 7.675 87.4083 7.8025 87.1383 8.0675C86.8733 8.3275 86.7408 8.8075 86.7408 9.5075V11.2175C86.7408 11.9075 86.8733 12.3875 87.1383 12.6575C87.4083 12.9225 87.8883 13.055 88.5783 13.055H89.8083C90.2833 13.055 90.6333 13.0075 90.8583 12.9125C91.0883 12.8125 91.2333 12.6425 91.2933 12.4025C91.3383 12.2575 91.3958 12.15 91.4658 12.08C91.5408 12.005 91.6508 11.9675 91.7958 11.9675C91.9558 11.9675 92.0783 12.01 92.1633 12.095C92.2533 12.18 92.2833 12.3025 92.2533 12.4625C92.1633 12.9825 91.9183 13.37 91.5183 13.625C91.1183 13.875 90.5483 14 89.8083 14H88.5783ZM96.7766 17C96.0966 17 95.5916 16.835 95.2616 16.505C94.9366 16.175 94.7741 15.6675 94.7741 14.9825C94.7741 14.6675 94.9316 14.51 95.2466 14.51C95.5616 14.51 95.7191 14.6675 95.7191 14.9825C95.7191 15.4025 95.7916 15.685 95.9366 15.83C96.0816 15.98 96.3616 16.055 96.7766 16.055H99.4766C99.8916 16.055 100.172 15.98 100.317 15.83C100.462 15.685 100.534 15.4025 100.534 14.9825V12.9725C100.249 13.3725 99.8966 13.645 99.4766 13.79C99.0566 13.935 98.5766 14.0075 98.0366 14.0075H97.5116C96.5666 14.0075 95.8741 13.7875 95.4341 13.3475C94.9941 12.9075 94.7741 12.22 94.7741 11.285V7.205C94.7741 6.89 94.9316 6.7325 95.2466 6.7325C95.5616 6.7325 95.7191 6.89 95.7191 7.205V11.285C95.7191 11.96 95.8466 12.425 96.1016 12.68C96.3616 12.935 96.8316 13.0625 97.5116 13.0625H98.0366C98.8966 13.0625 99.5266 12.915 99.9266 12.62C100.332 12.325 100.534 11.88 100.534 11.285V7.205C100.534 6.89 100.692 6.7325 101.007 6.7325C101.322 6.7325 101.479 6.89 101.479 7.205V14.9825C101.479 15.6675 101.314 16.175 100.984 16.505C100.659 16.835 100.157 17 99.4766 17H96.7766ZM47.05 32.94C46.6633 32.7733 46.5467 32.4967 46.7 32.11L51.59 20.38C51.73 20.0533 51.9667 19.89 52.3 19.89H52.35C52.6767 19.8967 52.9033 20.06 53.03 20.38L57.95 32.11C58.1167 32.4967 58.0033 32.7733 57.61 32.94C57.2233 33.0933 56.95 32.98 56.79 32.6L55.55 29.63H49.1L47.87 32.6C47.7167 32.9867 47.4433 33.1 47.05 32.94ZM49.61 28.37H55.02L52.3 21.88L49.61 28.37ZM61.4067 33C60.9867 33 60.7767 32.79 60.7767 32.37V20.52C60.7767 20.1 60.9867 19.89 61.4067 19.89C61.6267 19.89 61.8401 20.0133 62.0467 20.26L70.3767 30.97H70.0767V20.52C70.0767 20.1 70.2867 19.89 70.7067 19.89C71.1267 19.89 71.3367 20.1 71.3367 20.52V32.37C71.3367 32.79 71.1267 33 70.7067 33C70.4801 33 70.2667 32.8767 70.0667 32.63L61.7367 21.92H62.0367V32.37C62.0367 32.79 61.8267 33 61.4067 33ZM76.0403 33C75.6203 33 75.4103 32.79 75.4103 32.37V20.52C75.4103 20.1 75.6203 19.89 76.0403 19.89H80.8603C82.547 19.89 83.7803 20.28 84.5603 21.06C85.3403 21.84 85.7303 23.0733 85.7303 24.76V28.13C85.7303 29.81 85.3403 31.0433 84.5603 31.83C83.787 32.61 82.5536 33 80.8603 33H76.0403ZM76.6703 31.74H80.8603C81.7536 31.74 82.4636 31.6267 82.9903 31.4C83.517 31.1667 83.8936 30.7867 84.1203 30.26C84.3536 29.7267 84.4703 29.0167 84.4703 28.13V24.76C84.4703 23.8733 84.3536 23.1667 84.1203 22.64C83.8936 22.1067 83.517 21.7267 82.9903 21.5C82.4636 21.2667 81.7536 21.15 80.8603 21.15H76.6703V31.74ZM98.1975 33.03C98.0308 33.13 97.8708 33.16 97.7175 33.12C97.5708 33.0867 97.4442 32.99 97.3375 32.83L94.1175 27.63H90.7375V32.37C90.7375 32.79 90.5275 33 90.1075 33C89.6875 33 89.4775 32.79 89.4775 32.37V20.52C89.4775 20.1 89.6875 19.89 90.1075 19.89H94.7875C95.9542 19.89 96.8408 20.1933 97.4475 20.8C98.0542 21.4067 98.3575 22.2933 98.3575 23.46V24.06C98.3575 25.08 98.1208 25.8867 97.6475 26.48C97.1808 27.0733 96.4908 27.4367 95.5775 27.57L98.4175 32.17C98.6242 32.5233 98.5508 32.81 98.1975 33.03ZM90.7375 26.37H94.7875C95.6075 26.37 96.1975 26.19 96.5575 25.83C96.9175 25.4633 97.0975 24.8733 97.0975 24.06V23.46C97.0975 22.6467 96.9175 22.06 96.5575 21.7C96.1975 21.3333 95.6075 21.15 94.7875 21.15H90.7375V26.37ZM105.678 33C104.204 33 103.124 32.6567 102.438 31.97C101.751 31.2833 101.408 30.2033 101.408 28.73V24.15C101.408 22.6633 101.751 21.58 102.438 20.9C103.131 20.2133 104.208 19.8767 105.668 19.89H108.078C109.558 19.89 110.638 20.2333 111.318 20.92C112.004 21.6 112.348 22.68 112.348 24.16V28.73C112.348 30.2033 112.004 31.2833 111.318 31.97C110.638 32.6567 109.558 33 108.078 33H105.678ZM105.678 31.74H108.078C108.831 31.74 109.424 31.6467 109.858 31.46C110.298 31.2667 110.611 30.95 110.798 30.51C110.991 30.07 111.088 29.4767 111.088 28.73V24.16C111.088 23.4133 110.991 22.82 110.798 22.38C110.611 21.94 110.298 21.6267 109.858 21.44C109.424 21.2467 108.831 21.15 108.078 21.15H105.668C104.921 21.1433 104.328 21.2333 103.888 21.42C103.454 21.6067 103.141 21.92 102.948 22.36C102.761 22.8 102.668 23.3967 102.668 24.15V28.73C102.668 29.4767 102.761 30.07 102.948 30.51C103.141 30.95 103.458 31.2667 103.898 31.46C104.338 31.6467 104.931 31.74 105.678 31.74ZM116.718 33C116.298 33 116.088 32.79 116.088 32.37V20.52C116.088 20.1 116.298 19.89 116.718 19.89C117.012 19.89 117.248 20.0267 117.428 20.3L122.318 27.74L122.038 27.78L126.948 20.3C127.122 20.0267 127.375 19.89 127.708 19.89C128.068 19.89 128.248 20.1 128.248 20.52V32.37C128.248 32.79 128.038 33 127.618 33C127.198 33 126.988 32.79 126.988 32.37V21.78L127.368 21.91L122.888 28.66C122.708 28.9333 122.455 29.07 122.128 29.07C121.868 29.07 121.648 28.9333 121.468 28.66L116.988 21.91L117.348 22.03V32.37C117.348 32.79 117.138 33 116.718 33ZM132.954 33C132.534 33 132.324 32.79 132.324 32.37V20.52C132.324 20.1 132.534 19.89 132.954 19.89H140.344C140.764 19.89 140.974 20.1 140.974 20.52C140.974 20.94 140.764 21.15 140.344 21.15H133.584V25.74H137.984C138.404 25.74 138.614 25.95 138.614 26.37C138.614 26.79 138.404 27 137.984 27H133.584V31.74H140.344C140.764 31.74 140.974 31.95 140.974 32.37C140.974 32.79 140.764 33 140.344 33H132.954ZM144.658 33C144.238 33 144.028 32.79 144.028 32.37V20.52C144.028 20.1 144.238 19.89 144.658 19.89H149.478C151.164 19.89 152.398 20.28 153.178 21.06C153.958 21.84 154.348 23.0733 154.348 24.76V28.13C154.348 29.81 153.958 31.0433 153.178 31.83C152.404 32.61 151.171 33 149.478 33H144.658ZM145.288 31.74H149.478C150.371 31.74 151.081 31.6267 151.608 31.4C152.134 31.1667 152.511 30.7867 152.738 30.26C152.971 29.7267 153.088 29.0167 153.088 28.13V24.76C153.088 23.8733 152.971 23.1667 152.738 22.64C152.511 22.1067 152.134 21.7267 151.608 21.5C151.081 21.2667 150.371 21.15 149.478 21.15H145.288V31.74ZM157.009 32.94C156.623 32.7733 156.506 32.4967 156.659 32.11L161.549 20.38C161.689 20.0533 161.926 19.89 162.259 19.89H162.309C162.636 19.8967 162.863 20.06 162.989 20.38L167.909 32.11C168.076 32.4967 167.963 32.7733 167.569 32.94C167.183 33.0933 166.909 32.98 166.749 32.6L165.509 29.63H159.059L157.829 32.6C157.676 32.9867 157.403 33.1 157.009 32.94ZM159.569 28.37H164.979L162.259 21.88L159.569 28.37Z" fill="#0E0E0E"/>
<defs>
<clipPath id="clip0_159_1125">
<rect width="40" height="40" fill="white"/>
</clipPath>
</defs>
</svg>
