<svg width="30" height="30" viewBox="0 0 30 30" fill="none" xmlns="http://www.w3.org/2000/svg">
<g clip-path="url(#clip0_173_1622)">
<path d="M14.7865 0.161486C14.7407 0.180553 14.7242 0.180553 14.6759 0.167841C14.5971 0.147503 14.5386 0.148773 14.4865 0.174198C14.4446 0.193266 14.4369 0.193266 14.3759 0.174198C14.2933 0.146231 14.2857 0.147503 14.2208 0.179281C14.1738 0.203434 14.1611 0.204706 14.1128 0.191994C14.039 0.172926 13.9895 0.174198 13.9437 0.197079C13.9157 0.212334 13.8865 0.214876 13.8293 0.208519C13.7721 0.202164 13.7403 0.205976 13.6946 0.222502C13.6424 0.242842 13.6285 0.242842 13.5725 0.228859C13.5128 0.213604 13.5051 0.214876 13.4543 0.242842C13.4035 0.270807 13.3946 0.270807 13.3285 0.256824C13.2598 0.242842 13.2535 0.244112 13.209 0.274622C13.1683 0.301315 13.1556 0.303858 13.1263 0.292418C13.0742 0.27335 13.0361 0.277164 12.9801 0.3064C12.9382 0.328011 12.9166 0.330553 12.8594 0.324198C12.8009 0.31657 12.7857 0.319113 12.7539 0.341993C12.7196 0.367418 12.7119 0.368689 12.6585 0.354706C12.6064 0.340723 12.5975 0.341993 12.5568 0.366146C12.5238 0.387756 12.492 0.394114 12.4323 0.394114C12.3738 0.394114 12.3407 0.401739 12.309 0.420807C12.2683 0.446232 12.2441 0.447502 12.1869 0.425892C12.1768 0.420807 12.1513 0.433519 12.1285 0.452587C12.0929 0.481825 12.0814 0.484367 12.0306 0.47674C11.9848 0.470385 11.9657 0.474197 11.9314 0.494535C11.9047 0.511063 11.8679 0.521231 11.831 0.521231C11.8005 0.521231 11.7496 0.532673 11.7191 0.546656C11.6886 0.560638 11.6365 0.572079 11.6035 0.572079C11.5653 0.572079 11.5272 0.582249 11.5018 0.597502C11.4776 0.612757 11.4369 0.622927 11.4064 0.622927C11.3746 0.622927 11.334 0.634367 11.3073 0.649622C11.278 0.667418 11.2501 0.673773 11.2272 0.66996C11.2043 0.664875 11.1751 0.673773 11.1382 0.695383C11.095 0.719536 11.0721 0.724621 11.039 0.718266C11.0022 0.711908 10.9882 0.716993 10.9551 0.743689C10.9208 0.772926 10.9068 0.776739 10.8649 0.770384C10.8242 0.764029 10.809 0.767841 10.7772 0.794537C10.7492 0.817417 10.7251 0.826317 10.6844 0.826317C10.645 0.826317 10.6132 0.836485 10.5801 0.859367C10.5458 0.882248 10.5217 0.889875 10.4975 0.88479C10.4721 0.879705 10.4479 0.887333 10.4162 0.908943C10.3907 0.926741 10.3577 0.940723 10.3424 0.940723C10.3145 0.940723 10.209 0.978859 10.1251 1.01826C10.0971 1.03098 10.0564 1.04242 10.0361 1.04242C10.0119 1.04242 9.98015 1.0564 9.95091 1.08055C9.91404 1.11106 9.89752 1.11742 9.86574 1.11106C9.83269 1.10344 9.81616 1.10979 9.77549 1.14284C9.73862 1.17208 9.7132 1.18225 9.67633 1.18225C9.64837 1.18225 9.61913 1.18987 9.61023 1.20004C9.6026 1.21021 9.56828 1.22928 9.5365 1.24072C9.50345 1.25344 9.47167 1.26742 9.46404 1.27377C9.45769 1.27886 9.43862 1.28394 9.42337 1.28394C9.38523 1.28394 9.33184 1.31064 9.30006 1.34623C9.28099 1.36657 9.26574 1.37165 9.2365 1.3653C9.20472 1.36021 9.18693 1.36657 9.14752 1.39835C9.11955 1.41996 9.08269 1.4403 9.06616 1.44538C9.04837 1.4492 9.01913 1.46064 9.00133 1.46954C8.98354 1.47971 8.95811 1.48733 8.9454 1.48733C8.93142 1.48733 8.89837 1.50767 8.86913 1.53182C8.83608 1.56106 8.8043 1.57632 8.78015 1.57632C8.74582 1.57632 8.57803 1.66403 8.5615 1.69072C8.55769 1.69835 8.53226 1.70343 8.50684 1.70343C8.47633 1.70343 8.45091 1.7136 8.4293 1.73394C8.38481 1.77462 8.2793 1.83055 8.24243 1.83055C8.22718 1.83055 8.19032 1.85089 8.16108 1.87504C8.10388 1.92335 7.99328 1.9831 7.9615 1.9831C7.95006 1.9831 7.92082 1.99835 7.89667 2.01742C7.80896 2.08352 7.72633 2.13564 7.70726 2.13564C7.67803 2.13564 7.56108 2.20555 7.52549 2.24369C7.50769 2.26276 7.44286 2.30343 7.3793 2.33394C7.31701 2.36572 7.23311 2.4153 7.19498 2.44708C7.15684 2.47759 7.08184 2.52462 7.02972 2.55005C6.9776 2.57674 6.89116 2.63267 6.83904 2.67589C6.78693 2.71911 6.72718 2.76488 6.70557 2.77632C6.56065 2.85894 6.47421 2.91869 6.38142 3.00004C6.31023 3.06233 6.22633 3.12462 6.15133 3.17166C6.05854 3.23013 5.98735 3.28479 5.76743 3.47674C5.64159 3.58606 5.60726 3.61403 5.4865 3.7081C5.11659 3.99793 4.14159 4.97674 3.81998 5.38352C3.79201 5.41784 3.7221 5.50174 3.66616 5.56911C3.57591 5.67335 3.50345 5.76869 3.23142 6.13225C3.20599 6.16657 3.16659 6.21487 3.14625 6.2403C3.12464 6.26572 3.09794 6.30005 3.08523 6.31784C3.07379 6.33564 3.01913 6.41572 2.9632 6.49581C2.82845 6.68903 2.73311 6.83267 2.68989 6.90259C2.67082 6.93437 2.6365 6.98776 2.61489 7.02208C2.56404 7.10089 2.52337 7.16572 2.49667 7.21403C2.48523 7.23437 2.45472 7.28394 2.42803 7.32208C2.3721 7.40598 2.27549 7.57123 2.27549 7.58394C2.27549 7.58903 2.2615 7.61064 2.24498 7.63352C2.22845 7.65513 2.19921 7.70343 2.18142 7.73903C2.16362 7.77589 2.13311 7.83564 2.11532 7.87123C2.09625 7.9081 2.07082 7.95386 2.05811 7.97293C2.04413 7.99072 1.98693 8.10004 1.93099 8.21445C1.87506 8.32886 1.8204 8.43691 1.81023 8.45598C1.80006 8.47632 1.78481 8.50682 1.77464 8.52589C1.75684 8.56021 1.69074 8.69877 1.59667 8.90089C1.57125 8.95428 1.55091 9.00513 1.55091 9.01276C1.55091 9.02038 1.53057 9.06869 1.50642 9.11827C1.48227 9.16784 1.46193 9.21742 1.46193 9.22759C1.46193 9.23903 1.44667 9.27335 1.42888 9.30513C1.41108 9.33691 1.38566 9.39538 1.37294 9.43479C1.35896 9.4742 1.33989 9.51996 1.32972 9.53649C1.31955 9.55301 1.30176 9.60004 1.29032 9.64199C1.28015 9.68394 1.25727 9.74623 1.23947 9.78182C1.22294 9.81615 1.2026 9.87081 1.19498 9.90259C1.18608 9.93437 1.16701 9.98776 1.15049 10.0233C1.13523 10.0577 1.11489 10.1187 1.10727 10.1568C1.09837 10.195 1.07803 10.256 1.0615 10.2928C1.04371 10.3284 1.02337 10.3895 1.01701 10.4263C1.00938 10.4632 0.989045 10.528 0.97252 10.57C0.954723 10.6119 0.933113 10.6856 0.922943 10.7352C0.912774 10.7835 0.892435 10.8496 0.878452 10.8827C0.864469 10.9145 0.846672 10.9831 0.837774 11.0352C0.830147 11.0861 0.811079 11.1636 0.794553 11.2056C0.778028 11.2475 0.755147 11.3352 0.743706 11.4C0.732265 11.4661 0.713198 11.5462 0.699214 11.5806C0.686503 11.6136 0.667435 11.7013 0.657265 11.7738C0.647096 11.845 0.625486 11.9416 0.610231 11.9861C0.594977 12.0318 0.574638 12.131 0.56574 12.2085C0.55557 12.2861 0.53396 12.4119 0.516164 12.4895C0.498367 12.5657 0.478028 12.703 0.470401 12.7945C0.462774 12.8848 0.444977 13.0081 0.430994 13.0653C0.414469 13.1365 0.395401 13.3132 0.373791 13.5928C0.357265 13.8255 0.338198 14.0695 0.33057 14.1356C0.30896 14.3492 0.301333 15.0865 0.316587 15.4767C0.333113 15.9077 0.397943 16.6869 0.425909 16.8013C0.436079 16.8458 0.453876 16.9513 0.464045 17.0365C0.474215 17.1217 0.499638 17.2983 0.519977 17.428C0.540316 17.5577 0.563198 17.7089 0.570825 17.7649C0.579723 17.8208 0.598791 17.9136 0.616587 17.9708C0.633113 18.028 0.650909 18.103 0.654723 18.1361C0.659808 18.1704 0.678876 18.2543 0.699214 18.3242C0.718282 18.3941 0.746248 18.5111 0.761503 18.5848C0.798367 18.7729 0.856842 18.9903 0.882265 19.0399C0.893706 19.0628 0.916587 19.1314 0.933113 19.1924C1.01574 19.4975 1.03481 19.5623 1.0615 19.6208C1.09074 19.6844 1.15049 19.856 1.19498 20.006C1.22676 20.1102 1.28904 20.2755 1.33354 20.3708C1.35388 20.4128 1.3882 20.5017 1.41108 20.5678C1.43269 20.6339 1.48735 20.7623 1.53057 20.8539C1.57506 20.9441 1.62082 21.0496 1.63354 21.0878C1.64625 21.1259 1.69328 21.2263 1.73777 21.3102C1.78354 21.3954 1.83184 21.492 1.84582 21.5276C1.88396 21.6242 1.92082 21.7005 1.95769 21.7564C1.97549 21.7844 2.03015 21.8848 2.07718 21.9789C2.12421 22.0729 2.18523 22.1822 2.21066 22.2204C2.23735 22.2585 2.28566 22.345 2.31871 22.4111C2.35176 22.4772 2.39498 22.5483 2.41404 22.57C2.43438 22.5903 2.47379 22.6564 2.50303 22.7161C2.53099 22.7759 2.57549 22.8471 2.60091 22.875C2.62633 22.903 2.6632 22.9577 2.68354 22.9958C2.74074 23.1013 2.76998 23.1471 2.83608 23.231C2.91871 23.3378 2.94286 23.3568 2.97845 23.3467C2.99498 23.3428 3.10811 23.2437 3.22888 23.1255C3.44243 22.917 3.44879 22.9094 3.44879 22.8598C3.44879 22.7988 3.39286 22.6895 3.27718 22.5267C3.23523 22.4683 3.17549 22.3717 3.14371 22.3106C3.11193 22.2509 3.06998 22.1835 3.04964 22.1632C3.01786 22.1289 2.92379 21.956 2.92379 21.9306C2.92379 21.9242 2.90091 21.8899 2.87421 21.853C2.84625 21.8161 2.77633 21.6928 2.71913 21.581C2.66193 21.4678 2.60218 21.3572 2.58566 21.3369C2.5704 21.3153 2.54243 21.2581 2.52337 21.2098C2.5043 21.1602 2.44455 21.0293 2.38989 20.9174C2.33523 20.8056 2.28693 20.6975 2.28311 20.6772C2.27803 20.6556 2.25388 20.5971 2.22972 20.5462C2.20557 20.4954 2.1865 20.4483 2.1865 20.442C2.1865 20.4369 2.17252 20.4102 2.15472 20.3848C2.13693 20.3581 2.09371 20.25 2.05938 20.1445C2.02379 20.0378 1.9793 19.9195 1.95896 19.8814C1.91955 19.8051 1.83057 19.5547 1.83057 19.5166C1.83057 19.5039 1.81532 19.4594 1.79752 19.4174C1.77972 19.3755 1.7543 19.3043 1.74286 19.2585C1.73015 19.2128 1.71108 19.1581 1.69964 19.1352C1.6793 19.0971 1.61955 18.8759 1.56235 18.6255C1.54837 18.567 1.52676 18.4983 1.51405 18.4729C1.49116 18.4272 1.41998 18.1043 1.3793 17.8615C1.36786 17.7954 1.34752 17.7089 1.33354 17.6708C1.32082 17.6314 1.29794 17.5195 1.28523 17.4217C1.27125 17.3238 1.25091 17.2094 1.24074 17.1674C1.22167 17.0937 1.21277 17.0111 1.18099 16.6844C1.17337 16.6005 1.15938 16.4861 1.14921 16.4301C1.10472 16.1784 1.0615 15.0306 1.08057 14.5983C1.0882 14.4318 1.09964 14.1483 1.10599 13.9704C1.11362 13.7924 1.1276 13.589 1.13777 13.5191C1.17337 13.2839 1.18099 13.2267 1.19498 13.0678C1.2026 12.9801 1.22549 12.8263 1.24582 12.7246C1.26616 12.6229 1.2865 12.4945 1.29032 12.4386C1.2954 12.3827 1.3132 12.2937 1.32972 12.2416C1.34625 12.1895 1.36786 12.0852 1.37803 12.0115C1.3882 11.9378 1.40854 11.8462 1.42252 11.8081C1.4365 11.77 1.45684 11.6861 1.46701 11.6225C1.47718 11.5577 1.49752 11.4789 1.5115 11.4458C1.52549 11.414 1.54582 11.3428 1.55727 11.2869C1.56743 11.231 1.59032 11.1433 1.60684 11.0937C1.62464 11.0428 1.64498 10.9704 1.6526 10.931C1.66023 10.8916 1.67803 10.8369 1.69201 10.8102C1.70599 10.7822 1.72633 10.7149 1.7365 10.6589C1.74794 10.603 1.76701 10.5395 1.77972 10.5191C1.79243 10.4975 1.81532 10.4352 1.83057 10.3793C1.84582 10.3233 1.86616 10.2649 1.87633 10.2496C1.8865 10.2331 1.9043 10.1848 1.91447 10.1416C1.92591 10.0971 1.94879 10.0348 1.96532 10.003C1.98184 9.96996 2.00218 9.91657 2.00981 9.88225C2.01871 9.84793 2.04159 9.79072 2.06193 9.75513C2.08099 9.71954 2.09752 9.67886 2.09752 9.66488C2.09752 9.64962 2.11404 9.6064 2.13438 9.56826C2.15472 9.53013 2.18015 9.46911 2.19286 9.43098C2.20557 9.39284 2.22591 9.34835 2.23735 9.33055C2.25006 9.31276 2.26913 9.27208 2.28057 9.23903C2.29074 9.20598 2.31743 9.14623 2.33905 9.10682C2.35938 9.06742 2.37718 9.02674 2.37718 9.01784C2.37718 9.00894 2.39371 8.97208 2.41532 8.93649C2.43566 8.90089 2.45345 8.86657 2.45345 8.86149C2.45345 8.8564 2.47252 8.81445 2.49667 8.76996C2.51955 8.72547 2.54371 8.67462 2.54879 8.65682C2.55388 8.63903 2.57421 8.60216 2.59328 8.5742C2.61235 8.54623 2.63396 8.50301 2.64286 8.47886C2.65049 8.45471 2.67464 8.40894 2.69498 8.37716C2.71532 8.34538 2.73311 8.31615 2.73311 8.31106C2.73311 8.30598 2.75345 8.27038 2.7776 8.23225C2.80176 8.19411 2.8221 8.15725 2.8221 8.15089C2.8221 8.14454 2.83608 8.11911 2.85388 8.09369C2.8704 8.06826 2.91108 7.99454 2.94413 7.92971C2.97845 7.86487 3.02294 7.78606 3.04455 7.75428C3.06743 7.7225 3.1043 7.66276 3.12718 7.62081C3.15006 7.57886 3.19074 7.51276 3.21616 7.47462C3.28481 7.37038 3.38269 7.22038 3.4132 7.16954C3.44625 7.11615 3.46786 7.08437 3.53523 6.99157C3.56193 6.95343 3.62167 6.86699 3.66616 6.80089C3.71193 6.73479 3.77676 6.64581 3.80981 6.60386C3.84413 6.56191 3.94582 6.43098 4.03481 6.31276C4.12506 6.19454 4.2115 6.08267 4.22676 6.06487C4.24328 6.04708 4.34371 5.9314 4.44921 5.80937C5.05049 5.11911 5.29328 4.87377 5.84116 4.40471C5.95303 4.30937 6.08777 4.18987 6.13989 4.13903C6.19328 4.08945 6.28481 4.01318 6.34328 3.96869C6.40303 3.92547 6.46277 3.88098 6.47676 3.86954C6.49074 3.85937 6.52887 3.83267 6.56193 3.81233C6.59498 3.79072 6.66871 3.73098 6.72718 3.67759C6.78565 3.62547 6.8543 3.56954 6.88099 3.55555C6.96871 3.50598 6.99667 3.48945 7.0704 3.44115C7.10981 3.41572 7.1454 3.38903 7.15049 3.38267C7.16701 3.35344 7.30938 3.25682 7.39201 3.21742C7.44159 3.19327 7.50515 3.15386 7.53438 3.12844C7.62464 3.05089 7.65769 3.02928 7.69964 3.02038C7.72125 3.0153 7.74667 3.00259 7.75557 2.99242C7.7632 2.98225 7.77845 2.97462 7.78735 2.97462C7.79752 2.97462 7.8293 2.95301 7.85981 2.92632C7.93608 2.85767 8.0365 2.79666 8.07464 2.79666C8.09243 2.79666 8.11277 2.78903 8.1204 2.78013C8.14964 2.74581 8.31108 2.64411 8.3365 2.64411C8.36193 2.64411 8.45981 2.58691 8.52972 2.53098C8.54752 2.51699 8.57294 2.50428 8.58693 2.50428C8.61871 2.50428 8.72548 2.44962 8.7865 2.40132C8.8132 2.37971 8.84879 2.36445 8.8704 2.36445C8.89074 2.36445 8.92125 2.35428 8.93777 2.34157C9.01277 2.28437 9.10557 2.23733 9.14116 2.23733C9.16913 2.23733 9.19709 2.22335 9.23015 2.19284C9.26065 2.16615 9.29243 2.14835 9.31404 2.14835C9.34964 2.14835 9.46659 2.0975 9.52506 2.05682C9.54667 2.04157 9.57337 2.03394 9.59243 2.03776C9.61532 2.04157 9.6382 2.0314 9.67633 2.00089C9.70811 1.97293 9.74116 1.95767 9.76404 1.95767C9.78566 1.95767 9.82379 1.94623 9.84921 1.93352C9.97379 1.86742 10.0285 1.84581 10.0513 1.85089C10.0666 1.85471 10.0946 1.84199 10.1251 1.81784C10.167 1.78479 10.1835 1.77843 10.2229 1.78352C10.2611 1.7886 10.2763 1.78352 10.3119 1.75301C10.3412 1.72759 10.3679 1.71742 10.4022 1.71615C10.4327 1.71615 10.4683 1.70343 10.4975 1.68437C10.5229 1.66657 10.5623 1.65259 10.5852 1.65259C10.6081 1.65259 10.645 1.64115 10.6679 1.62716C10.6907 1.61318 10.7225 1.60174 10.739 1.60174C10.7556 1.60174 10.7924 1.5903 10.8217 1.57759C10.8509 1.5636 10.8979 1.54962 10.9259 1.54454C10.9539 1.53945 10.9831 1.52928 10.9907 1.52293C10.9996 1.51657 11.0441 1.50386 11.0899 1.49369C11.1369 1.48479 11.1827 1.47081 11.1903 1.46318C11.1992 1.45683 11.2373 1.44666 11.2755 1.44157C11.3136 1.43649 11.3657 1.4225 11.3899 1.40979C11.414 1.39581 11.456 1.38564 11.4814 1.38564C11.5081 1.38564 11.5526 1.3742 11.5806 1.35894C11.6136 1.34115 11.6429 1.33479 11.6632 1.33988C11.6861 1.34623 11.7128 1.3386 11.7496 1.31699C11.7916 1.29157 11.8145 1.28649 11.8513 1.29284C11.8882 1.29793 11.906 1.29411 11.9276 1.27505C11.9734 1.23437 11.9848 1.23055 12.0306 1.24708C12.0712 1.26233 12.0789 1.25979 12.1234 1.22928C12.164 1.20259 12.1818 1.1975 12.2301 1.20386C12.2734 1.20894 12.2988 1.20386 12.3357 1.18479C12.3712 1.16572 12.3992 1.16064 12.4501 1.16445C12.5047 1.16954 12.5225 1.16572 12.5518 1.14284C12.5873 1.11488 12.614 1.11106 12.6827 1.12632C12.7145 1.13267 12.7323 1.12759 12.759 1.10725C12.7882 1.0831 12.8035 1.08055 12.8619 1.08818C12.9191 1.09454 12.9407 1.09199 12.9929 1.06657C13.0475 1.04115 13.0628 1.03988 13.1073 1.05132C13.1492 1.06276 13.1645 1.06021 13.2026 1.03988C13.2407 1.01954 13.2623 1.01699 13.3297 1.02335C13.3996 1.03098 13.4162 1.02843 13.4556 1.00428C13.4988 0.977587 13.5064 0.976316 13.5687 0.99157C13.6272 1.00555 13.6412 1.00428 13.678 0.985214C13.7123 0.967419 13.7403 0.964876 13.8115 0.969959C13.8763 0.975044 13.9094 0.972502 13.9323 0.959791C13.9691 0.938181 14.0479 0.935638 14.109 0.953434C14.1433 0.962334 14.1636 0.959791 14.2132 0.939451C14.2704 0.914028 14.2818 0.914028 14.3568 0.928011C14.428 0.943266 14.4446 0.941994 14.4916 0.922926C14.5399 0.903858 14.5577 0.902588 14.634 0.916571C14.7001 0.928011 14.728 0.928011 14.7522 0.917841C14.7929 0.898773 14.8768 0.898773 14.939 0.915298C14.9746 0.925468 15.0039 0.924198 15.0585 0.910213C15.1234 0.893688 15.1412 0.893688 15.2263 0.911486C15.309 0.928011 15.3331 0.928011 15.3916 0.914028C15.4488 0.901316 15.4729 0.901316 15.5378 0.915298C15.6217 0.934366 15.6636 0.935638 15.778 0.921656C15.8314 0.914028 15.8632 0.917841 15.9064 0.934366C15.9623 0.955976 16.0119 0.955976 16.1136 0.934366C16.139 0.929281 16.1835 0.935638 16.2382 0.952164C16.3107 0.975044 16.3437 0.977587 16.4479 0.971231C16.5573 0.964876 16.5801 0.967419 16.678 0.997927C16.7759 1.02971 16.7912 1.03098 16.8496 1.01699C16.9056 1.00428 16.9272 1.00555 17.0276 1.02971C17.0899 1.04496 17.1611 1.0653 17.184 1.07547C17.2132 1.08691 17.2501 1.09072 17.3022 1.08437C17.3912 1.07547 17.5399 1.09962 17.6098 1.13394C17.6607 1.15937 17.7967 1.18098 17.9111 1.18225C17.9734 1.18225 18.1081 1.21657 18.2797 1.27505C18.3852 1.31064 18.506 1.33479 18.5429 1.32716C18.5645 1.32335 18.6001 1.32843 18.628 1.33988C18.6547 1.35132 18.6929 1.36021 18.7119 1.36021C18.731 1.36021 18.7742 1.37038 18.8085 1.38309C18.8683 1.40598 18.9344 1.43013 19.0551 1.47081C19.0869 1.48225 19.1365 1.50132 19.167 1.51403C19.1962 1.52801 19.2318 1.53818 19.2446 1.53818C19.2585 1.53818 19.2954 1.54962 19.3285 1.5636C19.3615 1.57759 19.406 1.58903 19.4276 1.58903C19.4505 1.58903 19.4899 1.60047 19.5166 1.61445C19.542 1.62844 19.5827 1.63988 19.6068 1.63988C19.631 1.63988 19.6806 1.65386 19.7187 1.67166C19.7556 1.68945 19.7988 1.70343 19.8153 1.70343C19.8318 1.70343 19.8712 1.71742 19.9043 1.73521C19.9373 1.75301 19.9729 1.76699 19.9857 1.76699C19.9971 1.76699 20.0518 1.78606 20.1064 1.81021C20.1623 1.8331 20.2272 1.85725 20.2513 1.86233C20.2742 1.86742 20.3174 1.88521 20.3454 1.90047C20.3734 1.91572 20.4166 1.93225 20.4407 1.93733C20.4649 1.94242 20.5056 1.95894 20.5297 1.97547C20.5539 1.99199 20.6073 2.01488 20.6479 2.02632C20.6873 2.03776 20.7471 2.06318 20.7814 2.08352C20.8145 2.10259 20.8615 2.12293 20.8857 2.12674C20.9098 2.13182 20.9505 2.14962 20.9759 2.16615C21.0013 2.18267 21.0636 2.21445 21.1157 2.23733C21.1679 2.25894 21.2301 2.29199 21.2543 2.31233C21.2785 2.3314 21.3255 2.35682 21.3585 2.36954C21.3916 2.38098 21.4513 2.41403 21.492 2.44199C21.5327 2.46869 21.5772 2.49157 21.5899 2.49157C21.6026 2.49157 21.6573 2.51954 21.7107 2.55386C21.764 2.58691 21.8518 2.63267 21.9064 2.65555C21.9611 2.67716 22.0297 2.71148 22.059 2.73055C22.0882 2.75089 22.1505 2.78521 22.1975 2.80682C22.2433 2.82843 22.3107 2.87165 22.345 2.90216C22.3806 2.93394 22.4416 2.97462 22.4823 2.99369C22.5242 3.01276 22.603 3.05852 22.659 3.09538C22.7149 3.13098 22.7899 3.17674 22.8242 3.19708C22.8598 3.21742 22.9081 3.2492 22.9323 3.26954C22.9831 3.31021 23.0263 3.31403 23.0721 3.28225C23.0899 3.27081 23.1941 3.16784 23.3047 3.05598C23.4865 2.86911 23.5043 2.84623 23.5043 2.80555C23.5043 2.76742 23.4941 2.75089 23.4318 2.69496C23.3912 2.65937 23.3212 2.61233 23.2755 2.58945C23.156 2.53225 23.0454 2.46615 23.0136 2.43437C22.9742 2.39369 22.8789 2.32632 22.8624 2.32632C22.8547 2.32632 22.809 2.30089 22.7619 2.26911C22.6602 2.20047 22.5662 2.14962 22.4835 2.11784C22.4505 2.10513 22.4073 2.08225 22.3882 2.06572C22.3691 2.05047 22.3094 2.0136 22.2547 1.98437C22.1988 1.9564 22.1365 1.91699 22.1136 1.89793C22.092 1.87759 22.0488 1.85216 22.017 1.83945C21.9852 1.82674 21.9458 1.80767 21.928 1.7975C21.8365 1.74665 21.6916 1.67801 21.6763 1.67801C21.6662 1.67801 21.6433 1.66657 21.6242 1.65386C21.5848 1.62462 21.4666 1.57123 21.4157 1.55852C21.3967 1.55471 21.3535 1.5331 21.3191 1.51276C21.2861 1.49115 21.2479 1.47462 21.2365 1.47462C21.2238 1.47462 21.1628 1.4492 21.0992 1.41742C21.0357 1.38564 20.9746 1.36021 20.9632 1.36021C20.9518 1.36021 20.9123 1.34242 20.8742 1.32208C20.8361 1.30047 20.7979 1.28394 20.789 1.28394C20.7801 1.28394 20.7369 1.26742 20.6924 1.24708C20.6479 1.22674 20.5793 1.19877 20.5386 1.18352C20.4979 1.16826 20.442 1.14538 20.4153 1.1314C20.3873 1.11742 20.3518 1.10598 20.3365 1.10598C20.32 1.10598 20.2831 1.09199 20.2539 1.07547C20.2246 1.05894 20.1814 1.04115 20.1585 1.03606C20.1357 1.03098 20.0886 1.01318 20.053 0.997927C20.0187 0.982672 19.9691 0.962334 19.945 0.953434C19.9208 0.944536 19.8636 0.924198 19.8179 0.906401C19.6488 0.84157 19.4403 0.778011 19.3475 0.762756C19.1912 0.737333 19.0323 0.692841 18.7691 0.598774C18.6585 0.560638 18.5848 0.542841 18.5212 0.539028C18.4056 0.535213 18.3153 0.521231 18.2479 0.497078C18.0357 0.422079 17.9785 0.408096 17.8297 0.400469C17.7255 0.395384 17.6594 0.385214 17.62 0.368689C17.517 0.32674 17.3835 0.303858 17.2946 0.312757C17.2348 0.319113 17.1979 0.31657 17.1585 0.301315C17.0518 0.26318 16.9679 0.250469 16.8662 0.258095C16.781 0.265722 16.7556 0.261909 16.6933 0.237757C16.631 0.214876 16.6005 0.211061 16.4772 0.213604C16.3615 0.216146 16.3145 0.212334 16.2369 0.189451C16.1416 0.162756 16.1378 0.162756 16.0729 0.185638C16.0081 0.207249 16.0056 0.207249 15.9318 0.180553C15.8429 0.147503 15.7818 0.14496 15.7285 0.171656C15.6941 0.188181 15.6814 0.188181 15.5886 0.164028C15.4946 0.139875 15.4831 0.139875 15.4145 0.157673C15.3496 0.174198 15.3331 0.174198 15.2696 0.157673C15.2251 0.14496 15.1755 0.141146 15.1399 0.146231C15.0585 0.157673 14.9645 0.158943 14.8984 0.148773C14.8577 0.142418 14.8259 0.146231 14.7865 0.161486Z" fill="white"/>
<path d="M14.6315 4.30423C14.3722 4.31821 14.1078 4.33855 13.9514 4.35508C10.987 4.66652 8.30736 6.18813 6.50863 8.58304C5.52855 9.88601 4.86245 11.3974 4.55863 13.0055C4.42897 13.6932 4.37939 14.2373 4.37939 14.9936C4.37939 15.5008 4.38956 15.7195 4.43151 16.1123C4.68702 18.5517 5.7688 20.8182 7.50651 22.5572C9.03194 24.0813 10.9718 25.1072 13.0819 25.5051C13.7722 25.6347 14.3124 25.683 15.0701 25.683C15.5773 25.683 15.7997 25.6729 16.1887 25.6322C18.1146 25.4301 19.9413 24.7119 21.4807 23.5551C23.8756 21.7563 25.3985 19.0754 25.7086 16.1123C25.7506 15.722 25.7595 15.5008 25.7595 14.9936C25.7595 14.3644 25.7379 14.0352 25.6578 13.4682C25.1709 10.0195 22.987 6.99279 19.8561 5.42669C18.59 4.79363 17.2832 4.43516 15.8264 4.32202C15.6535 4.30804 14.7853 4.29533 14.6315 4.30423ZM9.64846 8.96185C9.64846 8.97838 9.66499 8.99491 9.69804 9.01143C9.84041 9.08389 9.95355 9.31524 9.90651 9.43855C9.89634 9.46652 9.87855 9.51482 9.86711 9.5466C9.83533 9.63813 9.74507 9.73474 9.64846 9.7805C9.48829 9.85677 9.32177 9.82626 9.18067 9.69406C9.09423 9.6127 9.051 9.5288 9.04211 9.42203C9.02812 9.26058 9.10185 9.11313 9.24168 9.0216C9.27728 8.99872 9.30524 8.97075 9.30524 8.95804C9.30524 8.93897 9.32177 8.93643 9.47685 8.93643C9.63956 8.93643 9.64846 8.9377 9.64846 8.96185ZM10.2459 9.53262C10.326 9.56694 10.4353 9.61143 10.4874 9.63304C10.5396 9.65338 10.6146 9.68262 10.6527 9.69914C10.6908 9.7144 10.7531 9.73855 10.7913 9.75126C10.8294 9.76525 10.8904 9.7894 10.9273 9.80719C10.9641 9.82499 11.001 9.83897 11.0074 9.83897C11.015 9.83897 11.1256 9.88092 11.254 9.93304C11.3811 9.98389 11.5146 10.036 11.5514 10.0474C11.6137 10.0678 11.648 10.097 11.6951 10.1669L11.7141 10.1962L11.7828 10.1377C11.8756 10.0576 11.9112 10.0424 11.9938 10.0424C12.0802 10.0424 12.1438 10.0716 12.2074 10.1428C12.2735 10.2165 12.2963 10.2661 12.2951 10.3436C12.2951 10.4021 12.2874 10.4199 12.2391 10.4835C12.1616 10.5864 12.079 10.6398 11.9989 10.6398C11.8705 10.6398 11.7396 10.5356 11.7014 10.4047C11.6773 10.3233 11.6506 10.3042 11.5819 10.3157C11.5438 10.322 11.5108 10.3144 11.4205 10.2775C11.3582 10.2521 11.2641 10.2152 11.212 10.1949C11.1599 10.1746 11.0709 10.1402 11.015 10.1186C10.9591 10.0958 10.851 10.0551 10.7747 10.0284C10.6985 10.0004 10.6298 9.97372 10.6222 9.96736C10.6146 9.96101 10.5853 9.94957 10.5574 9.94067C10.5294 9.93177 10.4709 9.90889 10.4264 9.88855C10.3819 9.86821 10.3311 9.84787 10.312 9.84279C10.293 9.83897 10.2332 9.81609 10.1785 9.79194C10.1239 9.76906 10.0705 9.74999 10.0616 9.74999C10.0527 9.74999 10.0273 9.73474 10.0057 9.71694C9.97262 9.68897 9.96626 9.67499 9.96626 9.62669C9.96626 9.57457 9.97262 9.56186 10.0171 9.51863C10.0463 9.49194 10.0756 9.47033 10.0845 9.47033C10.0921 9.47033 10.1658 9.4983 10.2459 9.53262ZM19.8561 9.55931C19.9578 9.61143 20.0201 9.67372 20.0696 9.77542C20.1103 9.85677 20.1167 9.88092 20.1167 9.95974C20.1167 10.0347 20.1091 10.0614 20.0735 10.1352C20.0277 10.2267 19.9527 10.3042 19.8624 10.3513C19.8205 10.3741 19.7887 10.3792 19.6781 10.3792C19.5205 10.3792 19.4811 10.364 19.3794 10.2661C19.2853 10.172 19.2459 10.083 19.2459 9.95592C19.2459 9.86948 19.251 9.84533 19.2853 9.77796C19.3324 9.68262 19.4366 9.58347 19.5294 9.54787C19.6196 9.51101 19.7735 9.51609 19.8561 9.55931ZM19.8116 10.4873C19.8612 10.5063 19.8688 10.533 19.8815 10.7047C19.8879 10.7987 19.8993 10.9182 19.9057 10.9703C19.9438 11.2652 19.9476 11.3237 19.9273 11.3631C19.9158 11.3847 19.9069 11.4102 19.9069 11.4203C19.9069 11.4407 19.9591 11.4864 20.0188 11.5195C20.0404 11.5309 20.0849 11.5754 20.118 11.6174C20.151 11.6606 20.1866 11.6949 20.1968 11.6949C20.2069 11.6949 20.2349 11.672 20.2591 11.6453C20.2997 11.597 20.3048 11.5945 20.4002 11.5869C20.4535 11.583 20.5985 11.5678 20.7205 11.5538C20.8425 11.5411 20.9747 11.5258 21.0129 11.522C21.051 11.5195 21.14 11.508 21.2099 11.4979C21.2798 11.4877 21.4057 11.4737 21.4896 11.4661C21.6713 11.4521 21.9383 11.4241 22.1569 11.3974C22.2446 11.3873 22.3756 11.372 22.4493 11.3644C22.523 11.3568 22.6158 11.3441 22.6552 11.3364C22.7277 11.3237 22.729 11.3237 22.7951 11.3695C22.8319 11.3949 22.8663 11.4152 22.8701 11.4152C22.8752 11.4152 22.8891 11.3771 22.9019 11.3288C22.9146 11.2818 22.9349 11.2195 22.9476 11.189C22.9769 11.1191 23.0773 11.0237 23.1688 10.9767C23.3379 10.8902 23.573 10.9563 23.69 11.1216C23.7103 11.1496 23.737 11.1737 23.7497 11.1737C23.7688 11.1737 23.7713 11.1915 23.7713 11.3771C23.7713 11.5703 23.7701 11.5805 23.7472 11.5805C23.7319 11.5805 23.7052 11.6034 23.6824 11.6364C23.5845 11.7712 23.3976 11.8449 23.2527 11.803C23.0951 11.7559 22.9985 11.6746 22.94 11.5373C22.9196 11.4915 22.8993 11.4534 22.8942 11.4534C22.8891 11.4534 22.8726 11.4724 22.8586 11.4966C22.8078 11.5818 22.7633 11.597 22.4938 11.6186C22.3959 11.6263 22.279 11.639 22.2332 11.6453C22.1874 11.653 22.0705 11.6657 21.9726 11.6758C21.8747 11.686 21.7235 11.7025 21.6358 11.7127C21.548 11.7229 21.3624 11.7432 21.2226 11.7585C21.0828 11.7724 20.9023 11.7928 20.8222 11.803C20.7421 11.8131 20.5921 11.8284 20.4879 11.8373C20.3035 11.8525 20.2997 11.8513 20.2629 11.8246C20.2425 11.8093 20.2171 11.7966 20.2082 11.7966C20.198 11.7966 20.1701 11.8347 20.1472 11.8805C20.1002 11.972 20.0226 12.0407 19.9311 12.0724C19.8243 12.108 19.6667 12.0216 19.6069 11.8919C19.5472 11.7648 19.5841 11.6199 19.6934 11.5462C19.7633 11.4991 19.7696 11.4623 19.7175 11.3886C19.6832 11.339 19.6781 11.3186 19.6718 11.2119C19.6667 11.1458 19.6552 11.0313 19.6463 10.9576C19.6171 10.7402 19.6108 10.5623 19.6298 10.5254C19.6616 10.4657 19.7213 10.4542 19.8116 10.4873ZM12.2836 10.6627C12.2951 10.6741 12.3243 10.7301 12.351 10.786C12.3764 10.8419 12.4362 10.9691 12.4845 11.0695C12.5328 11.1699 12.5722 11.2551 12.5722 11.2602C12.5722 11.264 12.5963 11.3174 12.6243 11.3771C12.7654 11.6695 12.9141 11.986 12.9472 12.0636C12.9637 12.103 13.0196 12.2237 13.0718 12.3318C13.1239 12.4398 13.1849 12.5708 13.2065 12.6229C13.2294 12.675 13.2764 12.7729 13.312 12.839L13.3756 12.9597L13.3552 13.0157C13.3438 13.0462 13.3374 13.0754 13.3413 13.0805C13.3451 13.0856 13.3743 13.0945 13.4074 13.0996C13.5345 13.1174 13.6235 13.1746 13.6921 13.2826C13.762 13.3907 13.7341 13.5229 13.6196 13.6297C13.5993 13.6474 13.5586 13.6754 13.5281 13.6907C13.4595 13.7263 13.373 13.7199 13.293 13.6716C13.223 13.6309 13.2065 13.6131 13.1582 13.5203C13.0934 13.3983 13.1061 13.3436 13.2294 13.1987C13.2612 13.1619 13.2828 13.1263 13.2777 13.1186C13.2739 13.1123 13.251 13.1059 13.2281 13.1059C13.1735 13.1059 13.1226 13.0652 13.0934 12.9991C13.0807 12.9699 13.0476 12.8987 13.0196 12.839C12.9917 12.7792 12.8913 12.5619 12.7946 12.3559C12.6993 12.15 12.6129 11.9708 12.604 11.9555C12.5951 11.9415 12.5836 11.9161 12.5785 11.8983C12.5735 11.8805 12.5264 11.7788 12.4756 11.672C12.4235 11.5652 12.3815 11.4737 12.3815 11.4699C12.3815 11.4661 12.3624 11.4229 12.3383 11.372C12.3141 11.3224 12.2557 11.2017 12.2099 11.1038C12.1641 11.0059 12.1196 10.9144 12.112 10.9004C12.0548 10.7987 12.0535 10.7873 12.0891 10.7161C12.1069 10.6805 12.126 10.6627 12.1565 10.6538C12.2201 10.6347 12.262 10.6386 12.2836 10.6627ZM6.9688 11.3949C7.1849 11.4979 7.28024 11.7432 7.1849 11.953C7.1188 12.0966 6.96117 12.2123 6.81117 12.2263C6.75016 12.2313 6.72092 12.2263 6.651 12.1983C6.55185 12.1602 6.45524 12.0813 6.41838 12.0114C6.40185 11.9784 6.38533 11.9619 6.3688 11.9619C6.34465 11.9619 6.34338 11.953 6.34338 11.7902C6.34338 11.6352 6.34592 11.6186 6.36626 11.6186C6.37897 11.6186 6.40567 11.5894 6.43109 11.5487C6.54295 11.3708 6.77685 11.3034 6.9688 11.3949ZM19.5612 11.9987C19.6057 12.0216 19.6654 12.103 19.6654 12.1411C19.6654 12.15 19.5612 12.2631 19.4328 12.3928C19.3057 12.5224 19.1213 12.7131 19.0235 12.8148C18.9256 12.9165 18.7832 13.0652 18.7057 13.1453C18.6294 13.2254 18.4425 13.4199 18.2925 13.5763C17.8425 14.0453 17.451 14.4534 17.1345 14.7826C16.9705 14.953 16.7633 15.1703 16.673 15.2657C16.5828 15.361 16.4366 15.5123 16.3476 15.6038C16.2599 15.6941 16.0514 15.9114 15.8836 16.0869C15.3065 16.6919 15.2557 16.7415 15.2213 16.7415C15.1667 16.7415 15.093 16.6958 15.0777 16.6513C15.0472 16.5636 14.9417 16.6843 16.2319 15.3419C16.5853 14.9758 16.9235 14.6237 16.9832 14.5614C17.043 14.4979 17.1726 14.3644 17.2692 14.2627C17.3671 14.161 17.5641 13.9551 17.7078 13.8051C17.8514 13.6551 18.0624 13.4339 18.1781 13.3157C18.2938 13.1962 18.4336 13.0513 18.4896 12.9915C18.5442 12.9318 18.6815 12.7894 18.7946 12.6737C18.9065 12.558 19.1035 12.3534 19.2307 12.2186C19.3781 12.0648 19.4735 11.9746 19.4887 11.9746C19.5027 11.9746 19.5358 11.986 19.5612 11.9987ZM7.46965 12.2313C7.56499 12.3178 7.70482 12.4424 7.77982 12.5085C7.85355 12.5746 8.01626 12.7208 8.14084 12.8326C8.26541 12.9445 8.43448 13.0958 8.51711 13.1695C8.59973 13.2432 8.7599 13.3856 8.87304 13.4873C9.12473 13.7123 9.2938 13.8636 9.59253 14.1292C9.71711 14.2398 9.82262 14.3352 9.82643 14.339C9.83406 14.3479 10.1315 14.6148 10.3095 14.7712C11.1383 15.5047 11.1663 15.5339 11.1421 15.6102C11.1319 15.6419 11.0328 15.7119 10.9972 15.7119C10.9832 15.7119 10.9158 15.6623 10.8472 15.6C10.6527 15.4284 10.3985 15.2021 10.1887 15.0127C9.97389 14.8195 9.58363 14.4699 9.46541 14.3657C9.42219 14.3288 9.36245 14.2741 9.33067 14.2449C9.276 14.1941 9.13617 14.0695 8.91753 13.8763C8.75609 13.7326 8.5616 13.5585 8.55524 13.5508C8.54507 13.5381 7.49634 12.6013 7.31329 12.4411C7.21923 12.3585 7.1366 12.2771 7.12897 12.2593C7.11626 12.2326 7.12007 12.2212 7.15312 12.1741C7.18617 12.1284 7.25736 12.0763 7.2866 12.0763C7.29168 12.0763 7.37431 12.1462 7.46965 12.2313ZM13.2167 13.7059C13.279 13.7657 13.2752 13.8229 13.2052 13.9042C13.0997 14.025 12.7044 14.5055 12.3968 14.8856C12.3434 14.9517 12.2353 15.0801 12.1591 15.1716C12.0815 15.2619 11.9658 15.4042 11.8997 15.4856C11.7713 15.647 11.7307 15.6737 11.6646 15.6483C11.6137 15.6292 11.601 15.6445 11.629 15.6915C11.643 15.7144 11.6633 15.7627 11.6747 15.7983C11.6951 15.8593 11.6951 15.8695 11.676 15.9432C11.6519 16.0398 11.615 16.0805 11.5082 16.1339C11.4396 16.1669 11.4192 16.172 11.3633 16.1657C11.2819 16.1555 11.1917 16.1008 11.1434 16.0322C11.1141 15.9915 11.104 15.961 11.1002 15.9038C11.0849 15.6928 11.226 15.5669 11.4688 15.5746L11.5616 15.5784L11.568 15.5212C11.5743 15.4729 11.5883 15.4462 11.6506 15.3737C11.6925 15.3241 11.7866 15.2097 11.8603 15.1208C11.9341 15.0318 12.0688 14.8691 12.1591 14.7585C12.2506 14.6491 12.3815 14.489 12.4514 14.4025C12.5213 14.3174 12.6535 14.1572 12.7438 14.0479C12.8353 13.9386 12.9396 13.8114 12.9764 13.7644C13.0146 13.7161 13.054 13.6716 13.0654 13.6652C13.1023 13.6424 13.1709 13.6614 13.2167 13.7059ZM11.8845 16.1123C11.9468 16.1619 12.1654 16.3322 12.3434 16.4682C12.5048 16.5915 12.6764 16.7225 12.7451 16.7771C12.7883 16.8102 12.8874 16.8852 12.9663 16.9449C13.0438 17.0047 13.2243 17.1419 13.3654 17.25C13.5052 17.3593 13.673 17.4877 13.7353 17.536C13.7989 17.5843 13.9438 17.6949 14.0595 17.7826C14.1752 17.8691 14.2756 17.9491 14.2845 17.9606C14.2934 17.972 14.301 18.0013 14.301 18.0267C14.301 18.0661 14.2934 18.0801 14.2451 18.1195C14.1548 18.1932 14.1548 18.1932 13.912 18.0025C13.8281 17.9377 13.7353 17.8652 13.7035 17.8411C13.6718 17.8169 13.5917 17.7559 13.5256 17.7038C13.4595 17.653 13.3222 17.5475 13.2205 17.4712C13.0489 17.3402 12.9841 17.2907 12.8023 17.1508C12.7629 17.1203 12.6802 17.0568 12.6167 17.0085C12.5544 16.9614 12.4425 16.875 12.3688 16.8191C12.2468 16.7237 12.1565 16.6551 11.8285 16.4059C11.6086 16.2381 11.5934 16.214 11.6468 16.1224C11.6836 16.0602 11.69 16.0551 11.7574 16.0551C11.8044 16.0551 11.8235 16.064 11.8845 16.1123ZM14.9341 16.6602C15.0294 16.6881 15.1031 16.7669 15.1413 16.8801C15.168 16.9589 15.168 16.964 15.1476 17.0275C15.1324 17.0771 15.1095 17.1102 15.0637 17.1534C14.9836 17.2284 14.9328 17.25 14.8349 17.25C14.7574 17.25 14.7561 17.25 14.6798 17.1763C14.526 17.0313 14.5133 16.903 14.6417 16.7542C14.6862 16.7008 14.793 16.6398 14.8387 16.6398C14.8527 16.6398 14.8946 16.6487 14.9341 16.6602ZM14.7904 17.3186C14.9035 17.3453 14.9213 17.3886 14.8743 17.5195C14.8603 17.5563 14.8425 17.6237 14.8349 17.6695C14.8273 17.7152 14.812 17.7915 14.8019 17.8386C14.7828 17.9174 14.7764 17.9275 14.7256 17.9631C14.6608 18.0076 14.662 18.0178 14.7408 18.0737C14.7993 18.1169 14.8298 18.1716 14.8476 18.2682C14.8641 18.3521 14.8769 18.3661 14.8985 18.3254C14.9188 18.2873 14.9824 18.2542 15.037 18.2542C15.0586 18.2542 15.1463 18.2708 15.2328 18.2911C15.318 18.3114 15.4196 18.3343 15.4578 18.3419C15.4959 18.3496 15.5684 18.3636 15.6167 18.375C15.7184 18.3979 15.8061 18.4157 16.0743 18.4703C16.1798 18.4919 16.3285 18.525 16.4048 18.5428C16.4824 18.5606 16.6133 18.5886 16.6972 18.6038C16.7811 18.6203 16.9324 18.6508 17.0341 18.6725C17.1358 18.6953 17.2756 18.7246 17.3455 18.7398C17.5057 18.7729 17.5718 18.8034 17.6061 18.8606C17.6201 18.8847 17.6391 18.9025 17.648 18.9C17.6557 18.8962 17.6811 18.8669 17.704 18.8326C17.765 18.7411 17.8311 18.6788 17.9099 18.6394C17.9696 18.6102 17.9976 18.6051 18.0828 18.6051C18.1718 18.6038 18.1934 18.6089 18.262 18.6445C18.4247 18.7297 18.5341 18.9089 18.5175 19.0665C18.501 19.2241 18.4108 19.3538 18.2646 19.4301C18.1832 19.4733 18.1629 19.4784 18.0828 19.4784C18.0129 19.4771 17.9773 19.4695 17.9175 19.4415C17.7764 19.3754 17.6671 19.233 17.6506 19.0919C17.6417 19.022 17.6213 18.9534 17.6086 18.9534C17.6048 18.9534 17.5896 18.9648 17.5756 18.9775C17.5108 19.0386 17.4853 19.0424 17.3671 19.0093C17.3061 18.9928 17.1968 18.9699 17.123 18.9585C17.0493 18.9483 16.9552 18.928 16.9133 18.9152C16.8713 18.9038 16.8091 18.8886 16.7735 18.8847C16.7391 18.8797 16.6667 18.8644 16.6146 18.8517C16.5624 18.839 16.4646 18.8186 16.3985 18.8072C16.3324 18.797 16.2319 18.7767 16.176 18.7627C16.1201 18.75 16.0146 18.7258 15.9408 18.7106C15.8671 18.6953 15.7362 18.6674 15.6485 18.647C15.5608 18.628 15.4336 18.6025 15.365 18.5911C15.2976 18.5797 15.2264 18.5657 15.2074 18.558C15.1896 18.5517 15.1273 18.5364 15.0713 18.525C14.9582 18.5034 14.9201 18.478 14.8959 18.4106C14.887 18.3877 14.8769 18.3686 14.8718 18.3686C14.8667 18.3686 14.8489 18.3928 14.8311 18.422C14.7866 18.4983 14.7319 18.5466 14.6404 18.5911C14.5718 18.6241 14.5616 18.633 14.5654 18.661C14.5756 18.7347 14.5718 18.7881 14.5463 18.8898C14.5006 19.0729 14.3913 19.4975 14.3455 19.6716C14.3213 19.7619 14.2934 19.8712 14.2832 19.9131C14.273 19.9551 14.2552 20.0237 14.2451 20.0657C14.1739 20.3415 14.029 20.9301 14.0163 20.9962C13.9972 21.089 13.987 21.103 13.9196 21.1335C13.865 21.1576 13.8574 21.178 13.8879 21.2034C13.8993 21.2123 13.9336 21.2542 13.9641 21.2949C14.0163 21.3648 14.0213 21.3775 14.0213 21.4462C14.0213 21.5428 13.9845 21.6216 13.9146 21.6801C13.8472 21.7347 13.8027 21.7513 13.7201 21.7513C13.6374 21.7513 13.5828 21.722 13.4595 21.6114C13.429 21.5847 13.4239 21.5835 13.4163 21.6025C13.4124 21.614 13.4112 21.6381 13.415 21.6572C13.4277 21.7258 13.3832 21.7792 13.2942 21.8008C13.2713 21.8072 13.2014 21.8288 13.1404 21.8504C12.9841 21.9051 12.9637 21.9038 12.9091 21.8288C12.8201 21.708 12.8442 21.6852 13.19 21.553C13.2446 21.5326 13.2917 21.5212 13.3069 21.5263C13.3209 21.5313 13.3463 21.5313 13.3641 21.5275C13.3896 21.5212 13.3972 21.5072 13.4112 21.4475C13.443 21.3051 13.5472 21.1907 13.6705 21.1627C13.748 21.1449 13.7582 21.1322 13.7506 21.0572C13.7468 21.014 13.7519 20.9708 13.7684 20.9237C13.7811 20.8856 13.7976 20.8169 13.8052 20.7737C13.8129 20.7292 13.8294 20.6568 13.8434 20.6148C13.8561 20.5716 13.8841 20.4585 13.9069 20.3644C13.9298 20.2703 13.9578 20.1585 13.9705 20.1165C13.9845 20.0746 14.0035 19.9945 14.0137 19.9386C14.0252 19.8826 14.0569 19.7504 14.0849 19.6462C14.1129 19.5407 14.1548 19.3665 14.1802 19.2585C14.2057 19.1504 14.24 19.0157 14.2565 18.9597C14.273 18.9038 14.2908 18.8352 14.2946 18.8072C14.3086 18.7182 14.3264 18.6788 14.3646 18.6419C14.3862 18.6216 14.4027 18.5949 14.4027 18.5822C14.4027 18.5682 14.3785 18.5313 14.348 18.4983C14.287 18.4309 14.2502 18.3597 14.2502 18.3076C14.2502 18.2873 14.2616 18.2377 14.2756 18.1958C14.3035 18.1144 14.315 18.1042 14.4917 18.0114C14.5591 17.9746 14.5692 17.9415 14.5285 17.8843C14.5006 17.8449 14.5006 17.8424 14.5209 17.7788C14.5374 17.7241 14.5794 17.5487 14.6124 17.3987C14.6201 17.3593 14.6722 17.3008 14.6976 17.3008C14.7065 17.3008 14.7485 17.3097 14.7904 17.3186ZM12.5557 21.5491C12.6167 21.572 12.6497 21.5962 12.7413 21.6915L12.8519 21.8059V21.9152C12.8519 21.9763 12.8442 22.0525 12.8341 22.0856C12.8112 22.1619 12.726 22.275 12.6612 22.3157C12.6332 22.3335 12.6103 22.3563 12.6103 22.3665C12.6103 22.383 12.5798 22.3856 12.4133 22.3856C12.2582 22.3856 12.2163 22.3818 12.2163 22.3691C12.2163 22.3589 12.1908 22.3335 12.1603 22.3119C12.093 22.2636 12.0243 22.172 11.9938 22.0907C11.962 22.0055 11.9722 21.8682 12.0167 21.7818C12.0663 21.6852 12.1692 21.5924 12.2671 21.5542C12.3713 21.5148 12.4578 21.5123 12.5557 21.5491Z" fill="white"/>
<path d="M27.1066 6.90638C26.8893 7.12375 26.86 7.15934 26.86 7.20383C26.86 7.23689 26.9172 7.34112 26.9808 7.42375C27.0113 7.46189 27.0711 7.55595 27.1143 7.6335C27.1575 7.70977 27.2122 7.80129 27.235 7.83689C27.2579 7.87121 27.3202 7.98307 27.3749 8.08477C27.4295 8.18646 27.4893 8.29197 27.5071 8.31994C27.5261 8.3479 27.5605 8.41528 27.5833 8.46866C27.6075 8.52332 27.6469 8.60341 27.6723 8.6479C27.6977 8.69112 27.7397 8.77629 27.7664 8.83477C27.7944 8.89451 27.8439 9.00002 27.877 9.06994C27.9812 9.28349 28.0168 9.36485 28.0168 9.38392C28.0168 9.39536 28.055 9.48307 28.1007 9.57968C28.1465 9.67756 28.1922 9.78434 28.2011 9.81994C28.2355 9.9407 28.3066 10.1377 28.3321 10.1822C28.3613 10.2318 28.4083 10.3691 28.463 10.5572C28.5088 10.7174 28.5711 10.9068 28.6041 10.9894C28.6181 11.0238 28.6372 11.0924 28.6461 11.142C28.6664 11.2526 28.73 11.5068 28.7795 11.6759C28.8227 11.8233 28.8812 12.1106 28.9181 12.3572C28.9333 12.4526 28.9537 12.5543 28.9639 12.5848C28.974 12.6153 28.9918 12.7119 29.002 12.7996C29.0122 12.8873 29.0325 13.0259 29.0465 13.106C29.0694 13.2458 29.0872 13.4225 29.1037 13.6716C29.1075 13.7339 29.1189 13.9004 29.1291 14.0403C29.1761 14.6962 29.1787 15.4043 29.1355 15.7882C29.1278 15.8479 29.1138 16.0335 29.1037 16.2026C29.0846 16.5178 29.0719 16.6411 29.0401 16.8051C29.03 16.8572 29.016 16.9716 29.0083 17.0593C29.0007 17.1471 28.9804 17.2729 28.9639 17.3403C28.9461 17.4064 28.9257 17.5182 28.9181 17.5882C28.9105 17.6568 28.8901 17.761 28.8736 17.817C28.8571 17.8742 28.8342 17.9797 28.824 18.0509C28.8126 18.1221 28.7922 18.206 28.7783 18.2377C28.7655 18.2682 28.7465 18.3458 28.735 18.4106C28.7249 18.4754 28.7045 18.5581 28.6905 18.5962C28.6766 18.6331 28.6562 18.7017 28.6461 18.75C28.6359 18.7971 28.6155 18.8657 28.6016 18.9026C28.5863 18.9407 28.566 19.0144 28.5545 19.0665C28.5444 19.1199 28.524 19.1835 28.5113 19.2089C28.4986 19.2343 28.4783 19.2941 28.4668 19.3424C28.4554 19.3907 28.4338 19.4581 28.4172 19.4937C28.402 19.528 28.3829 19.5839 28.3753 19.6157C28.3664 19.6487 28.3435 19.711 28.3219 19.7555C28.3016 19.8 28.2838 19.8471 28.2838 19.861C28.2838 19.8737 28.2634 19.9284 28.2393 19.9831C28.2151 20.0377 28.1948 20.0899 28.1948 20.1C28.1948 20.1089 28.1744 20.1585 28.1503 20.2106C28.1261 20.2615 28.1058 20.3136 28.1058 20.3263C28.1058 20.339 28.0893 20.3822 28.0677 20.4216C28.0473 20.461 28.0295 20.4992 28.0295 20.5068C28.0295 20.5132 28.0041 20.5716 27.9723 20.6365C27.9405 20.7026 27.9151 20.7623 27.9151 20.7712C27.9151 20.7801 27.8986 20.8144 27.8795 20.8462C27.8592 20.878 27.8389 20.9212 27.8338 20.9428C27.8287 20.9632 27.8083 21.0064 27.7893 21.0394C27.7689 21.0712 27.7486 21.1106 27.7435 21.1284C27.7384 21.1449 27.7181 21.1843 27.699 21.2174C27.68 21.2492 27.6596 21.2886 27.6545 21.3064C27.6494 21.3229 27.6304 21.3623 27.6113 21.3941C27.5922 21.4259 27.5694 21.4704 27.5617 21.492C27.5541 21.5149 27.5312 21.5581 27.5109 21.5873C27.4905 21.6178 27.4689 21.6547 27.4639 21.6712C27.4588 21.6877 27.427 21.7475 27.3939 21.8047C27.3596 21.8619 27.2948 21.9712 27.2503 22.0487C27.0685 22.3589 27.0291 22.425 26.9452 22.5471C26.93 22.5687 26.8804 22.6462 26.8346 22.7174C26.7889 22.7886 26.724 22.8826 26.6884 22.9271C26.6541 22.9704 26.6045 23.0403 26.5804 23.081C26.5562 23.1216 26.4876 23.2195 26.4278 23.2996C26.3681 23.3784 26.3083 23.4585 26.2944 23.4776C26.2206 23.578 26.0452 23.8004 25.9893 23.8653C25.8316 24.0496 25.5113 24.4132 25.3931 24.5403C25.2609 24.6839 24.7346 25.2153 24.6672 25.2712C24.6456 25.289 24.5973 25.331 24.5592 25.364C24.5211 25.3983 24.4677 25.4441 24.4397 25.4657C24.3253 25.5598 24.1651 25.7009 24.0825 25.7797C23.9821 25.8763 23.8181 26.0085 23.7711 26.0339C23.7533 26.0428 23.7253 26.0619 23.7075 26.0746C23.6897 26.0886 23.6439 26.1242 23.6045 26.1521C23.5651 26.1814 23.4965 26.2373 23.452 26.2767C23.4075 26.3149 23.3274 26.3721 23.2753 26.4026C23.166 26.4674 23.0605 26.5411 23.035 26.5729C23.0109 26.6021 22.8888 26.6822 22.8685 26.6822C22.8456 26.6822 22.749 26.7432 22.6855 26.7966C22.6168 26.8564 22.5342 26.911 22.5139 26.911C22.4884 26.911 22.3842 26.9746 22.3232 27.028C22.2927 27.0547 22.2609 27.0763 22.2533 27.0763C22.2456 27.0776 22.2164 27.0877 22.1884 27.1017C22.1605 27.1157 22.13 27.1259 22.1223 27.1271C22.1134 27.1271 22.0842 27.1462 22.0588 27.1704C22.0041 27.2187 21.8897 27.2797 21.8541 27.2797C21.8414 27.2797 21.8198 27.2911 21.8083 27.3038C21.7727 27.3432 21.6405 27.4195 21.6062 27.4195C21.5897 27.4195 21.5503 27.4386 21.5198 27.4615C21.4321 27.5276 21.3698 27.5593 21.3291 27.5593C21.305 27.5593 21.2757 27.5746 21.2427 27.6038C21.216 27.628 21.1842 27.6483 21.1727 27.6483C21.1346 27.6483 20.9897 27.7132 20.9605 27.7449C20.9389 27.7678 20.9185 27.7754 20.8791 27.7754C20.8422 27.7754 20.8194 27.7831 20.8028 27.8009C20.7914 27.8136 20.7545 27.8352 20.7215 27.8466C20.6897 27.8593 20.6579 27.8733 20.6516 27.8797C20.6439 27.8848 20.6236 27.8899 20.6033 27.8899C20.5829 27.8899 20.5511 27.9051 20.5257 27.928C20.4927 27.9572 20.4698 27.9661 20.4316 27.9661C20.3935 27.9661 20.3681 27.9763 20.3312 28.0055C20.2944 28.0348 20.2727 28.0424 20.2473 28.0373C20.2257 28.0335 20.2028 28.0386 20.1838 28.0538C20.1507 28.078 19.9766 28.1441 19.9422 28.1441C19.9308 28.1441 19.9028 28.1593 19.8812 28.1784C19.8507 28.2038 19.8278 28.2115 19.7935 28.2102C19.7566 28.2076 19.7338 28.2165 19.6982 28.2445C19.6588 28.2763 19.6448 28.2801 19.6194 28.2699C19.5787 28.2547 19.5876 28.2521 19.5304 28.2979C19.4897 28.3297 19.4744 28.3348 19.435 28.3284C19.3982 28.3221 19.3829 28.3259 19.3511 28.3526C19.3219 28.3767 19.2965 28.3856 19.2571 28.3856C19.2215 28.3856 19.1897 28.3958 19.1694 28.411C19.149 28.4263 19.1172 28.4365 19.0842 28.4365C19.0486 28.4365 19.0155 28.4466 18.985 28.467C18.9507 28.4911 18.9291 28.4962 18.8961 28.4911C18.8605 28.486 18.8401 28.4911 18.8007 28.5191C18.7562 28.5496 18.7461 28.5521 18.7105 28.5394C18.6749 28.5267 18.666 28.5293 18.6316 28.5585C18.5973 28.5865 18.5846 28.5903 18.5363 28.5839C18.488 28.5776 18.474 28.5814 18.4422 28.6081C18.4092 28.636 18.3952 28.6399 18.3482 28.6322C18.305 28.6259 18.2846 28.6297 18.2503 28.6513C18.2198 28.6704 18.1855 28.678 18.1384 28.678C18.0939 28.678 18.0583 28.6856 18.038 28.6996C18.0164 28.7149 17.9808 28.7225 17.93 28.7225C17.8766 28.7225 17.841 28.7301 17.8168 28.7454C17.7888 28.7644 17.7685 28.767 17.7189 28.7606C17.6668 28.753 17.6503 28.7555 17.6287 28.7746C17.6096 28.7924 17.5816 28.7987 17.5181 28.8C17.4647 28.8 17.4189 28.8089 17.391 28.8229C17.3592 28.8407 17.3325 28.8432 17.2766 28.8382C17.2194 28.8305 17.199 28.8343 17.1698 28.8534C17.1393 28.8737 17.1177 28.8776 17.0516 28.8712C16.9905 28.8674 16.9639 28.8699 16.9397 28.8865C16.9016 28.9106 16.8698 28.9119 16.8037 28.8928C16.7617 28.8801 16.7503 28.8814 16.7096 28.9068C16.6689 28.9322 16.6524 28.9348 16.5825 28.9271C16.5151 28.9208 16.4935 28.9233 16.4516 28.9449C16.4122 28.9653 16.3944 28.9691 16.3677 28.9576C16.3155 28.9386 16.2367 28.9424 16.1999 28.9653C16.177 28.9805 16.1554 28.9843 16.1147 28.9767C16.0855 28.9729 16.0422 28.9653 16.0194 28.9615C15.9914 28.9564 15.9622 28.9627 15.9342 28.978C15.8948 28.9983 15.8821 28.9996 15.7905 28.9843C15.7003 28.9691 15.685 28.9704 15.6482 28.9894C15.6113 29.0085 15.5961 29.0098 15.5083 28.9945C15.4244 28.9818 15.4028 28.9818 15.3609 28.9983C15.3202 29.0136 15.2973 29.0149 15.2287 29.0021C15.1639 28.992 15.1333 28.992 15.085 29.006C15.0316 29.0199 15.01 29.0199 14.9211 29.0021C14.8651 28.9907 14.799 28.9843 14.7761 28.9882C14.752 28.992 14.7126 28.9996 14.6884 29.0034C14.6605 29.0085 14.6083 29.0021 14.555 28.9882C14.4825 28.9704 14.4596 28.9678 14.4177 28.9805C14.3465 29.0021 14.2982 28.9996 14.2092 28.9691C14.1316 28.9411 14.1291 28.9411 14.063 28.964C13.9994 28.9856 13.9905 28.9856 13.9283 28.9665C13.8024 28.9284 13.7185 28.917 13.6181 28.9259C13.5316 28.9335 13.5113 28.931 13.4554 28.9055C13.402 28.8814 13.3677 28.8763 13.2304 28.8737C13.0931 28.8712 13.055 28.8661 12.9698 28.8369C12.891 28.8089 12.8427 28.8013 12.7372 28.7987C12.624 28.7962 12.577 28.7873 12.4321 28.7441C12.2719 28.6971 12.141 28.6742 12.0405 28.6767C12.0177 28.678 11.9719 28.6678 11.9389 28.6538C11.9058 28.6411 11.8511 28.6221 11.8155 28.6106C11.7812 28.6004 11.7355 28.5852 11.7139 28.5788C11.6363 28.5521 11.4838 28.514 11.4278 28.5064C11.2537 28.4848 11.1787 28.4632 10.7732 28.3119C10.7172 28.2903 10.6524 28.2674 10.6308 28.2598C10.6079 28.2521 10.5698 28.2394 10.5482 28.2318C10.5253 28.2242 10.4783 28.2089 10.4427 28.1987C10.4083 28.1873 10.3524 28.1657 10.3206 28.1492C10.2876 28.1326 10.2444 28.1187 10.2253 28.1187C10.205 28.1187 10.1694 28.1072 10.1452 28.092C10.1211 28.078 10.0639 28.0551 10.0181 28.0424C9.97233 28.0297 9.90114 28.0055 9.86046 27.9865C9.81978 27.9687 9.77783 27.9534 9.76512 27.9534C9.75368 27.9534 9.71809 27.9369 9.68631 27.9153C9.6558 27.8949 9.61258 27.8746 9.59097 27.8695C9.57063 27.8644 9.50961 27.839 9.45749 27.8123C9.40538 27.7843 9.35071 27.7627 9.33673 27.7627C9.32275 27.7627 9.2808 27.7424 9.24521 27.7182C9.20834 27.6941 9.16894 27.6737 9.15877 27.6737C9.14733 27.6737 9.08249 27.6458 9.01512 27.6115C8.68716 27.4449 8.60834 27.4068 8.588 27.4068C8.57656 27.4068 8.53588 27.3877 8.50029 27.3636C8.46343 27.3407 8.38716 27.3 8.33249 27.2733C8.27656 27.2479 8.20283 27.2047 8.16724 27.178C8.13292 27.1513 8.08334 27.1208 8.05919 27.1081C8.03504 27.0954 7.97275 27.0572 7.9219 27.0229C7.87105 26.9886 7.76809 26.9301 7.69309 26.892C7.61427 26.8526 7.538 26.8043 7.51258 26.7776C7.43249 26.6937 7.36004 26.6733 7.29394 26.7178C7.27487 26.7305 7.19224 26.8081 7.10961 26.892C7.02699 26.9759 6.93419 27.0649 6.90495 27.0903C6.863 27.1259 6.85156 27.1449 6.85156 27.1754C6.85156 27.2339 6.87317 27.2695 6.92529 27.3038C6.95072 27.3204 6.98758 27.3445 7.00665 27.3585C7.02572 27.3712 7.04605 27.3814 7.05241 27.3814C7.05749 27.3814 7.11978 27.417 7.1897 27.4615C7.25834 27.506 7.34733 27.5581 7.38546 27.5771C7.4236 27.5975 7.48588 27.6407 7.52529 27.6737C7.59648 27.736 7.66258 27.7754 7.69436 27.7754C7.70453 27.7754 7.74902 27.7996 7.79351 27.8288C7.838 27.8581 7.92063 27.9 7.97529 27.9242C8.03122 27.9471 8.11004 27.989 8.14944 28.017C8.18885 28.0449 8.22699 28.0678 8.23334 28.0678C8.24987 28.0678 8.35029 28.1237 8.42656 28.1746C8.46343 28.2 8.50283 28.2204 8.51555 28.2204C8.52699 28.2204 8.56512 28.2394 8.59944 28.2623C8.63504 28.2852 8.68843 28.3144 8.72021 28.3271C8.75199 28.3411 8.83461 28.3793 8.9058 28.4136C8.97571 28.4466 9.04182 28.4746 9.05071 28.4746C9.05961 28.4746 9.09521 28.4924 9.12953 28.5127C9.16258 28.5343 9.20199 28.5509 9.2147 28.5509C9.22741 28.5509 9.28334 28.5712 9.338 28.5966C9.39394 28.6221 9.44987 28.6462 9.46385 28.6513C9.47783 28.6576 9.52741 28.6793 9.57572 28.7009C9.62275 28.7237 9.67233 28.7415 9.68504 28.7415C9.69902 28.7415 9.73461 28.7555 9.76385 28.7733C9.79436 28.7911 9.82995 28.8051 9.84266 28.8051C9.85538 28.8051 9.90241 28.8216 9.9469 28.8432C9.99139 28.8636 10.0372 28.8814 10.0461 28.8814C10.0562 28.8814 10.0956 28.8954 10.1325 28.9119C10.1961 28.9411 10.3308 28.9818 10.4554 29.011C10.4833 29.0174 10.5418 29.0339 10.585 29.0479C10.6283 29.0606 10.6753 29.0721 10.6905 29.0721C10.7045 29.0721 10.7389 29.0835 10.7668 29.0975C10.7948 29.1115 10.8304 29.1229 10.8456 29.1229C10.8622 29.1229 10.9054 29.1369 10.9422 29.1547C10.9804 29.1725 11.0211 29.1865 11.035 29.1865C11.0477 29.1865 11.0884 29.2004 11.1253 29.217C11.2486 29.2716 11.4634 29.3263 11.5931 29.3326C11.6566 29.3365 11.8715 29.3949 11.9274 29.4242C11.9783 29.4496 12.0914 29.4699 12.2033 29.4737C12.2986 29.4763 12.4626 29.5119 12.549 29.5487C12.5744 29.5589 12.6329 29.5678 12.6825 29.5678C12.8287 29.5678 12.9062 29.578 12.9952 29.6123C13.0689 29.639 13.102 29.6441 13.2304 29.6441C13.3397 29.6454 13.3918 29.6504 13.43 29.667C13.4681 29.6822 13.5113 29.6873 13.6016 29.6848C13.7211 29.6822 13.8062 29.6937 13.9219 29.7293C13.9753 29.7458 13.9893 29.7458 14.0579 29.7254C14.1329 29.7051 14.1367 29.7051 14.2105 29.7331C14.2689 29.7547 14.3007 29.7598 14.3414 29.7521C14.4304 29.7382 14.5321 29.7407 14.5893 29.7585C14.6325 29.7725 14.6528 29.7725 14.7113 29.7585C14.7596 29.7471 14.8016 29.7458 14.8435 29.7521C14.9033 29.7636 14.9821 29.7649 15.1079 29.7585C15.1435 29.756 15.1956 29.7585 15.2261 29.7649C15.2617 29.7712 15.3062 29.7687 15.3494 29.7585C15.4041 29.7458 15.4333 29.7458 15.502 29.7585C15.577 29.7725 15.591 29.7725 15.6367 29.7509C15.6825 29.7318 15.6977 29.7305 15.7613 29.7432C15.8566 29.7636 15.8922 29.7623 15.9227 29.7394C15.9545 29.7153 16.0295 29.7153 16.0931 29.7407C16.1414 29.7598 16.1452 29.7598 16.1897 29.7331C16.2304 29.7076 16.2456 29.7051 16.3308 29.7127C16.4071 29.7204 16.4325 29.7178 16.4566 29.7013C16.4795 29.686 16.5062 29.6835 16.5723 29.6899C16.6461 29.6962 16.6664 29.6937 16.7109 29.6708C16.7579 29.6454 16.7668 29.6454 16.8126 29.6619C16.8571 29.6771 16.8698 29.6771 16.9143 29.6593C16.9422 29.6479 17.002 29.639 17.0528 29.6377C17.1164 29.6377 17.1533 29.6314 17.1761 29.6161C17.2028 29.5983 17.2257 29.5945 17.2855 29.6009C17.3427 29.6072 17.3694 29.6034 17.4024 29.5869C17.4342 29.5704 17.4622 29.5665 17.5155 29.5716C17.5778 29.578 17.5931 29.5754 17.6325 29.5475C17.6719 29.5208 17.6833 29.5182 17.7139 29.5297C17.7558 29.5462 17.813 29.536 17.8359 29.5093C17.8461 29.4966 17.8778 29.4915 17.9376 29.4915C18.0024 29.4915 18.0355 29.4852 18.0685 29.4649C18.1028 29.4445 18.1257 29.4407 18.1677 29.4471C18.2134 29.4534 18.2287 29.4496 18.2643 29.4242C18.3011 29.3962 18.31 29.3949 18.3545 29.4064C18.399 29.4191 18.4092 29.4165 18.4486 29.3873C18.4842 29.3593 18.5007 29.3543 18.5452 29.3606C18.5872 29.367 18.6062 29.3619 18.6355 29.3415C18.6596 29.3237 18.6889 29.3149 18.727 29.3149C18.7575 29.3161 18.8071 29.3047 18.8389 29.2894C18.8706 29.2754 18.9138 29.2627 18.9367 29.2627C18.9596 29.2627 19.0066 29.2513 19.0422 29.2373C19.0778 29.2233 19.1249 29.2119 19.1477 29.2119C19.1706 29.2119 19.2011 29.203 19.2151 29.1941C19.2304 29.1839 19.2698 29.1687 19.3041 29.161C19.3384 29.1534 19.3867 29.1382 19.4109 29.128C19.435 29.1191 19.4783 29.1051 19.5062 29.0987C19.5571 29.0873 19.5901 29.0771 19.7096 29.0339C19.7452 29.0212 19.7935 29.0072 19.8189 29.0034C19.8456 28.9983 19.88 28.9843 19.8977 28.9704C19.9181 28.9551 19.9486 28.9449 19.9804 28.9449C20.0172 28.9449 20.0427 28.936 20.0732 28.9106C20.1024 28.8865 20.1253 28.8776 20.1571 28.8788C20.1876 28.8814 20.2155 28.8712 20.255 28.8432C20.2969 28.8127 20.3172 28.8051 20.3439 28.8127C20.3694 28.8191 20.3859 28.814 20.4062 28.7949C20.4431 28.7619 20.4838 28.7415 20.5155 28.7415C20.5435 28.7415 20.6058 28.7174 20.6986 28.6704C20.7316 28.6538 20.7749 28.6399 20.7952 28.6399C20.8194 28.6399 20.8511 28.6233 20.8867 28.5941C20.9172 28.5687 20.9516 28.5509 20.9668 28.5534C20.9961 28.5572 21.0914 28.514 21.1677 28.4644C21.1931 28.4479 21.2249 28.4352 21.2376 28.4365C21.2795 28.4415 21.291 28.4365 21.3329 28.3996C21.3558 28.3793 21.3939 28.3589 21.4168 28.3538C21.4397 28.3487 21.474 28.3373 21.4931 28.3271C21.5122 28.317 21.5338 28.3093 21.5414 28.3093C21.549 28.3093 21.5783 28.289 21.6062 28.2649C21.638 28.2382 21.6723 28.2204 21.6927 28.2204C21.7257 28.2204 21.8477 28.1555 21.9138 28.1047C21.9304 28.0907 21.9545 28.0831 21.966 28.0869C21.9787 28.0907 22.0308 28.0627 22.0982 28.017C22.1605 27.975 22.224 27.9407 22.2405 27.9407C22.2711 27.9407 22.36 27.886 22.4338 27.8237C22.4566 27.8047 22.4846 27.7882 22.4973 27.7882C22.5304 27.7882 22.6359 27.731 22.6905 27.6839C22.7554 27.628 22.8266 27.5848 22.8545 27.5848C22.8812 27.5848 22.9664 27.5301 23.0439 27.4627C23.0744 27.4373 23.1342 27.3979 23.1774 27.3763C23.2715 27.3293 23.3986 27.2428 23.4342 27.2034C23.4482 27.1882 23.4711 27.1704 23.485 27.164C23.5715 27.1246 23.724 27.0216 23.8372 26.925C23.9605 26.8195 24.0037 26.7865 24.0329 26.775C24.0469 26.7712 24.0749 26.7521 24.0977 26.7343C24.1194 26.7165 24.1651 26.681 24.1994 26.6568C24.2325 26.6326 24.3291 26.5526 24.4143 26.4788C24.4982 26.4051 24.6456 26.2831 24.741 26.2081C25.1566 25.8788 26.0249 25.0093 26.3872 24.5593C26.4418 24.4932 26.5562 24.3521 26.6439 24.2479C26.7316 24.1424 26.8219 24.0318 26.8448 24C26.8677 23.9682 26.9592 23.8449 27.0482 23.7267C27.1893 23.5373 27.249 23.4547 27.2986 23.3759C27.3342 23.3199 27.3901 23.2386 27.4257 23.1928C27.4473 23.1649 27.4855 23.1076 27.5083 23.0657C27.5325 23.0237 27.5744 22.9564 27.6037 22.917C27.6494 22.8521 27.685 22.7949 27.7994 22.6043C27.8172 22.5737 27.8541 22.5165 27.8808 22.4759C27.9062 22.4352 27.9278 22.3958 27.9278 22.3869C27.9278 22.3793 27.9482 22.3424 27.9723 22.3043C27.9965 22.2661 28.0168 22.2305 28.0168 22.2267C28.0168 22.2216 28.0295 22.2 28.0448 22.1784C28.06 22.1568 28.0893 22.1072 28.1096 22.0678C28.1287 22.0297 28.1706 21.9521 28.2024 21.8962C28.2342 21.8403 28.2685 21.7716 28.2787 21.7437C28.2889 21.7157 28.3105 21.6725 28.327 21.6483C28.3435 21.6242 28.3626 21.5835 28.3702 21.5593C28.3791 21.5352 28.3969 21.4971 28.4109 21.4767C28.4465 21.4246 28.5431 21.2212 28.5634 21.1589C28.5723 21.131 28.5876 21.0966 28.5965 21.0826C28.6054 21.0687 28.6219 21.0318 28.6346 21C28.6461 20.9682 28.6753 20.9034 28.6982 20.8551C28.7223 20.8068 28.7414 20.7585 28.7414 20.7483C28.7414 20.7382 28.7554 20.7038 28.7732 20.6746C28.791 20.6441 28.8164 20.5818 28.8304 20.5373C28.8456 20.4915 28.8622 20.4509 28.8685 20.4471C28.8749 20.4432 28.8914 20.4026 28.9054 20.3581C28.9194 20.3136 28.9448 20.25 28.9613 20.2157C28.9791 20.1826 28.9994 20.1242 29.0071 20.0873C29.0147 20.0504 29.035 19.9932 29.0516 19.9602C29.0681 19.9271 29.0884 19.8737 29.0961 19.8432C29.105 19.8115 29.1253 19.7543 29.1431 19.7136C29.1596 19.6742 29.18 19.6106 29.1876 19.5712C29.1939 19.5331 29.2168 19.4657 29.2359 19.4212C29.2562 19.3767 29.2766 19.3132 29.2816 19.2788C29.2867 19.2445 29.3033 19.1873 29.3185 19.1517C29.335 19.1161 29.3554 19.0462 29.3643 18.9979C29.3732 18.9483 29.3935 18.8771 29.41 18.8377C29.4266 18.7983 29.4469 18.7157 29.4571 18.6534C29.4672 18.5911 29.4876 18.5098 29.5028 18.4729C29.5181 18.436 29.5384 18.3483 29.5486 18.2784C29.5588 18.2085 29.5791 18.1157 29.5944 18.0737C29.6083 18.0305 29.6261 17.9466 29.6325 17.8869C29.6401 17.8271 29.6592 17.7229 29.6757 17.6568C29.6935 17.5907 29.7151 17.461 29.7266 17.3708C29.738 17.2793 29.7609 17.1229 29.7774 17.0212C29.7939 16.9195 29.8143 16.7504 29.8219 16.6462C29.8295 16.5407 29.8473 16.3894 29.86 16.3093C29.8931 16.1136 29.9083 15.8428 29.9185 15.2479C29.93 14.517 29.9071 13.8852 29.8537 13.5572C29.8435 13.4937 29.8295 13.3627 29.8219 13.2649C29.8143 13.167 29.7914 12.9776 29.7711 12.8454C29.752 12.7119 29.7291 12.5517 29.7202 12.4894C29.7126 12.4259 29.6922 12.3204 29.677 12.2543C29.6605 12.1882 29.6427 12.1004 29.6376 12.0598C29.6325 12.0191 29.6185 11.9555 29.6071 11.9199C29.5855 11.8589 29.574 11.803 29.5232 11.5297C29.499 11.3962 29.4571 11.236 29.4151 11.1165C29.3961 11.0606 29.3694 10.9716 29.3579 10.9195C29.3211 10.7619 29.288 10.6386 29.255 10.5382C29.1876 10.3373 29.1698 10.2877 29.1405 10.2165C29.124 10.1759 29.11 10.1314 29.11 10.1174C29.11 10.092 29.0694 9.96231 29.0401 9.89621C29.0312 9.8746 29.0134 9.82883 29.0007 9.79451C28.988 9.75892 28.9677 9.71316 28.9562 9.69282C28.9435 9.67121 28.9194 9.60892 28.9016 9.55299C28.8482 9.38519 28.8316 9.34324 28.7592 9.19578C28.7211 9.11824 28.6905 9.04833 28.6905 9.04197C28.6905 9.02417 28.6016 8.82078 28.5342 8.68858C28.5037 8.62502 28.4477 8.50934 28.4122 8.42926C28.3753 8.34917 28.3333 8.26909 28.3168 8.25002C28.3016 8.23095 28.2812 8.19536 28.2723 8.17248C28.2291 8.05807 28.177 7.95129 28.1439 7.91316C28.1325 7.89917 28.0918 7.83053 28.055 7.76061C27.9139 7.49621 27.8986 7.46697 27.8694 7.43265C27.8541 7.41358 27.8172 7.35256 27.7893 7.29663C27.7626 7.24197 27.7206 7.16951 27.6965 7.13773C27.6418 7.06019 27.5579 6.92672 27.5071 6.83519C27.4639 6.75765 27.3863 6.68646 27.3482 6.68773C27.3342 6.68773 27.2261 6.78689 27.1066 6.90638Z" fill="white"/>
</g>
<defs>
<clipPath id="clip0_173_1622">
<rect width="30" height="30" fill="white"/>
</clipPath>
</defs>
</svg>
